<?xml version="1.0" encoding="utf-8" standalone="no"?>
<!DOCTYPE svg PUBLIC "-//W3C//DTD SVG 1.1//EN"
  "http://www.w3.org/Graphics/SVG/1.1/DTD/svg11.dtd">
<svg xmlns:xlink="http://www.w3.org/1999/xlink" width="1440pt" height="1152pt" viewBox="0 0 1440 1152" xmlns="http://www.w3.org/2000/svg" version="1.1">
 <metadata>
  <rdf:RDF xmlns:dc="http://purl.org/dc/elements/1.1/" xmlns:cc="http://creativecommons.org/ns#" xmlns:rdf="http://www.w3.org/1999/02/22-rdf-syntax-ns#">
   <cc:Work>
    <dc:type rdf:resource="http://purl.org/dc/dcmitype/StillImage"/>
    <dc:date>2023-04-14T22:44:33.401118</dc:date>
    <dc:format>image/svg+xml</dc:format>
    <dc:creator>
     <cc:Agent>
      <dc:title>Matplotlib v3.7.0, https://matplotlib.org/</dc:title>
     </cc:Agent>
    </dc:creator>
   </cc:Work>
  </rdf:RDF>
 </metadata>
 <defs>
  <style type="text/css">*{stroke-linejoin: round; stroke-linecap: butt}</style>
 </defs>
 <g id="figure_1">
  <g id="patch_1">
   <path d="M 0 1152 
L 1440 1152 
L 1440 0 
L 0 0 
z
" style="fill: #ffffff"/>
  </g>
  <g id="axes_1">
   <g id="patch_2">
    <path d="M 180 921.6 
L 1296 921.6 
L 1296 138.24 
L 180 138.24 
z
" style="fill: #ffffff"/>
   </g>
   <g id="PolyCollection_1">
    <defs>
     <path id="m0fa0808a90" d="M 1082.625493 -832.654248 
L 1082.625493 -284.038401 
L 1083.958667 -332.889639 
L 1085.291841 -279.734718 
L 1086.625015 -291.97563 
L 1087.958189 -319.835056 
L 1089.291363 -286.22651 
L 1090.624537 -273.844568 
L 1091.957711 -278.625993 
L 1093.290885 -294.869047 
L 1094.624059 -291.133648 
L 1095.957233 -277.928007 
L 1097.290407 -298.143875 
L 1098.623581 -290.682673 
L 1099.956755 -335.694508 
L 1101.28993 -284.225979 
L 1102.623104 -294.28775 
L 1103.956278 -319.730229 
L 1105.289452 -290.045677 
L 1106.622626 -272.967669 
L 1107.9558 -278.131474 
L 1109.288974 -294.501621 
L 1110.622148 -288.887478 
L 1111.955322 -278.634712 
L 1113.288496 -298.828124 
L 1114.62167 -289.015825 
L 1115.954844 -337.205623 
L 1117.288018 -280.891298 
L 1118.621192 -293.68815 
L 1119.954366 -320.648459 
L 1121.28754 -284.747962 
L 1122.620714 -270.263236 
L 1123.953888 -275.743066 
L 1125.287062 -293.738629 
L 1126.620237 -287.530857 
L 1127.953411 -277.607254 
L 1129.286585 -296.875829 
L 1130.619759 -289.847374 
L 1131.952933 -334.047882 
L 1133.286107 -281.292195 
L 1134.619281 -291.413257 
L 1135.952455 -320.581622 
L 1137.285629 -284.126231 
L 1138.618803 -270.639706 
L 1139.951977 -275.445863 
L 1141.285151 -291.500111 
L 1142.618325 -286.18589 
L 1143.951499 -275.495551 
L 1145.284673 -294.646803 
L 1146.617847 -288.704235 
L 1147.951021 -333.154759 
L 1149.284195 -280.328714 
L 1150.617369 -290.559317 
L 1151.950544 -319.757138 
L 1153.283718 -283.219618 
L 1154.616892 -269.857908 
L 1155.950066 -274.661191 
L 1157.28324 -290.737107 
L 1158.616414 -285.474436 
L 1159.949588 -274.693564 
L 1161.282762 -293.854038 
L 1162.615936 -287.957195 
L 1163.94911 -332.320246 
L 1165.282284 -279.638672 
L 1166.615458 -289.790589 
L 1167.948632 -318.918974 
L 1169.281806 -282.603117 
L 1170.61498 -269.14129 
L 1171.948154 -273.938158 
L 1173.281328 -289.970616 
L 1174.614502 -284.721011 
L 1175.947677 -273.935691 
L 1177.280851 -293.128809 
L 1178.614025 -287.124875 
L 1179.947199 -331.626568 
L 1181.280373 -278.818596 
L 1182.613547 -289.064281 
L 1183.946721 -318.116803 
L 1185.279895 -281.81635 
L 1186.613069 -268.320722 
L 1187.946243 -273.141071 
L 1189.279417 -289.241701 
L 1190.612591 -283.960255 
L 1191.945765 -273.202256 
L 1193.278939 -292.398654 
L 1194.612113 -286.365694 
L 1195.945287 -330.856603 
L 1197.278461 -278.052506 
L 1198.611635 -288.293022 
L 1199.944809 -317.346437 
L 1201.277984 -281.0469 
L 1202.611158 -267.548241 
L 1203.944332 -272.36822 
L 1205.277506 -288.467012 
L 1206.61068 -283.184252 
L 1207.943854 -272.42885 
L 1209.277028 -291.624584 
L 1210.610202 -285.593585 
L 1211.943376 -330.086763 
L 1213.27655 -277.278438 
L 1214.609724 -287.521095 
L 1215.942898 -316.577417 
L 1217.276072 -280.270006 
L 1218.609246 -266.775102 
L 1219.94242 -271.595123 
L 1221.275594 -287.694955 
L 1222.608768 -282.411967 
L 1223.941942 -271.656451 
L 1225.275116 -290.851015 
L 1226.608291 -284.826097 
L 1227.941465 -329.314496 
L 1229.274639 -276.510623 
L 1230.607813 -286.749995 
L 1231.940987 -315.80888 
L 1233.274161 -279.501068 
L 1234.607335 -266.007273 
L 1235.940509 -270.826469 
L 1237.273683 -286.92391 
L 1238.606857 -281.642031 
L 1239.940031 -270.885535 
L 1241.273205 -290.080001 
L 1242.606379 -284.058148 
L 1243.939553 -328.547025 
L 1245.272727 -275.742965 
L 1245.272727 -843.948264 
L 1245.272727 -843.948264 
L 1243.939553 -896.743718 
L 1242.606379 -852.233143 
L 1241.273205 -856.745564 
L 1239.940031 -837.552845 
L 1238.606857 -848.31123 
L 1237.273683 -853.594933 
L 1235.940509 -837.497116 
L 1234.607335 -832.675594 
L 1233.274161 -846.171069 
L 1231.940987 -882.478927 
L 1230.607813 -853.420208 
L 1229.274639 -843.180821 
L 1227.941465 -895.976073 
L 1226.608291 -851.46594 
L 1225.275116 -855.978948 
L 1223.941942 -836.786135 
L 1222.608768 -847.543545 
L 1221.275594 -852.828363 
L 1219.94242 -836.728153 
L 1218.609246 -831.9058 
L 1217.276072 -845.402389 
L 1215.942898 -881.709845 
L 1214.609724 -852.65369 
L 1213.27655 -842.411016 
L 1211.943376 -895.210692 
L 1210.610202 -850.695706 
L 1209.277028 -855.209867 
L 1207.943854 -836.01589 
L 1206.61068 -846.77319 
L 1205.277506 -852.057785 
L 1203.944332 -835.958614 
L 1202.611158 -831.136295 
L 1201.277984 -844.636644 
L 1199.944809 -880.936227 
L 1198.611635 -851.882979 
L 1197.278461 -841.642446 
L 1195.945287 -894.437878 
L 1194.612113 -849.925124 
L 1193.278939 -854.438929 
L 1191.945765 -835.244293 
L 1190.612591 -846.004195 
L 1189.279417 -851.287482 
L 1187.946243 -835.186472 
L 1186.613069 -830.363777 
L 1185.279895 -843.861099 
L 1183.946721 -880.161597 
L 1182.613547 -851.109238 
L 1181.280373 -840.863519 
L 1179.947199 -893.662509 
L 1178.614025 -849.138197 
L 1177.280851 -853.57119 
L 1175.947677 -834.379835 
L 1174.614502 -845.167058 
L 1173.281328 -850.418504 
L 1171.948154 -834.385665 
L 1170.61498 -829.586451 
L 1169.281806 -843.049971 
L 1167.948632 -879.365873 
L 1166.615458 -850.237652 
L 1165.282284 -840.085707 
L 1163.94911 -892.758451 
L 1162.615936 -848.373162 
L 1161.282762 -852.725906 
L 1159.949588 -833.567198 
L 1158.616414 -844.349976 
L 1157.28324 -849.61449 
L 1155.950066 -833.538193 
L 1154.616892 -828.732557 
L 1153.283718 -842.095963 
L 1151.950544 -878.633526 
L 1150.617369 -849.435864 
L 1149.284195 -839.205215 
L 1147.951021 -892.022168 
L 1146.617847 -847.548783 
L 1145.284673 -851.907661 
L 1143.951499 -832.758172 
L 1142.618325 -843.450416 
L 1141.285151 -848.766479 
L 1139.951977 -832.711848 
L 1138.618803 -827.903338 
L 1137.285629 -841.39156 
L 1135.952455 -877.847003 
L 1134.619281 -848.678868 
L 1133.286107 -838.558118 
L 1131.952933 -891.311232 
L 1130.619759 -847.103806 
L 1129.286585 -853.621964 
L 1127.953411 -834.355279 
L 1126.620237 -844.280922 
L 1125.287062 -850.490667 
L 1123.953888 -832.494684 
L 1122.620714 -827.012314 
L 1121.28754 -841.498852 
L 1119.954366 -877.39938 
L 1118.621192 -850.439225 
L 1117.288018 -837.642351 
L 1115.954844 -893.948451 
L 1114.62167 -845.73812 
L 1113.288496 -854.150622 
L 1111.955322 -833.959114 
L 1110.622148 -844.213936 
L 1109.288974 -849.830065 
L 1107.9558 -833.459475 
L 1106.622626 -828.293069 
L 1105.289452 -845.372897 
L 1103.956278 -875.057453 
L 1102.623104 -849.61511 
L 1101.28993 -839.553366 
L 1099.956755 -891.015803 
L 1098.623581 -845.988909 
L 1097.290407 -852.450497 
L 1095.957233 -832.236563 
L 1094.624059 -845.444291 
L 1093.290885 -849.181694 
L 1091.957711 -832.938102 
L 1090.624537 -828.153833 
L 1089.291363 -840.537273 
L 1087.958189 -874.144175 
L 1086.625015 -846.270124 
L 1085.291841 -833.94828 
L 1083.958667 -885.494948 
L 1082.625493 -832.654248 
z
" style="stroke: #000000; stroke-opacity: 0.1"/>
    </defs>
    <g clip-path="url(#p689274e9f3)">
     <use xlink:href="#m0fa0808a90" x="0" y="1152" style="fill-opacity: 0.1; stroke: #000000; stroke-opacity: 0.1"/>
    </g>
   </g>
   <g id="matplotlib.axis_1">
    <g id="xtick_1">
     <g id="line2d_1">
      <defs>
       <path id="m462e7bee2f" d="M 0 0 
L 0 3.5 
" style="stroke: #000000; stroke-width: 0.8"/>
      </defs>
      <g>
       <use xlink:href="#m462e7bee2f" x="230.727273" y="921.6" style="stroke: #000000; stroke-width: 0.8"/>
      </g>
     </g>
     <g id="text_1">
      <!-- 2021-01 -->
      <g transform="translate(193.604206 956.74471) rotate(-30) scale(0.12 -0.12)">
       <defs>
        <path id="SimHei-32" d="M 300 250 
Q 325 625 650 925 
Q 975 1225 1475 1862 
Q 1975 2500 2125 2850 
Q 2275 3200 2237 3450 
Q 2200 3700 2000 3862 
Q 1800 4025 1537 4000 
Q 1275 3975 1037 3800 
Q 800 3625 675 3275 
L 200 3350 
Q 400 3925 712 4187 
Q 1025 4450 1450 4475 
Q 1700 4500 1900 4462 
Q 2100 4425 2312 4287 
Q 2525 4150 2662 3875 
Q 2800 3600 2762 3212 
Q 2725 2825 2375 2287 
Q 2025 1750 1025 600 
L 2825 600 
L 2825 150 
L 300 150 
L 300 250 
z
" transform="scale(0.015625)"/>
        <path id="SimHei-30" d="M 225 2537 
Q 250 3200 412 3587 
Q 575 3975 875 4225 
Q 1175 4475 1612 4475 
Q 2050 4475 2375 4112 
Q 2700 3750 2800 3200 
Q 2900 2650 2862 1937 
Q 2825 1225 2612 775 
Q 2400 325 1975 150 
Q 1550 -25 1125 187 
Q 700 400 525 750 
Q 350 1100 275 1487 
Q 200 1875 225 2537 
z
M 750 2687 
Q 675 2000 800 1462 
Q 925 925 1212 700 
Q 1500 475 1800 612 
Q 2100 750 2237 1162 
Q 2375 1575 2375 2062 
Q 2375 2550 2337 2950 
Q 2300 3350 2112 3675 
Q 1925 4000 1612 4012 
Q 1300 4025 1062 3700 
Q 825 3375 750 2687 
z
" transform="scale(0.015625)"/>
        <path id="SimHei-31" d="M 1400 3600 
Q 1075 3275 575 2975 
L 575 3450 
Q 1200 3875 1600 4450 
L 1900 4450 
L 1900 150 
L 1400 150 
L 1400 3600 
z
" transform="scale(0.015625)"/>
        <path id="SimHei-2d" d="M 2975 2125 
L 125 2125 
L 125 2525 
L 2975 2525 
L 2975 2125 
z
" transform="scale(0.015625)"/>
       </defs>
       <use xlink:href="#SimHei-32"/>
       <use xlink:href="#SimHei-30" x="50"/>
       <use xlink:href="#SimHei-32" x="100"/>
       <use xlink:href="#SimHei-31" x="150"/>
       <use xlink:href="#SimHei-2d" x="200"/>
       <use xlink:href="#SimHei-30" x="250"/>
       <use xlink:href="#SimHei-31" x="300"/>
      </g>
     </g>
    </g>
    <g id="xtick_2">
     <g id="line2d_2">
      <g>
       <use xlink:href="#m462e7bee2f" x="350.712938" y="921.6" style="stroke: #000000; stroke-width: 0.8"/>
      </g>
     </g>
     <g id="text_2">
      <!-- 2021-04 -->
      <g transform="translate(313.589871 956.74471) rotate(-30) scale(0.12 -0.12)">
       <defs>
        <path id="SimHei-34" d="M 2000 1100 
L 75 1100 
L 75 1525 
L 2100 4450 
L 2475 4450 
L 2475 1525 
L 3075 1525 
L 3075 1100 
L 2475 1100 
L 2475 150 
L 2000 150 
L 2000 1100 
z
M 2000 1525 
L 2000 3500 
L 600 1525 
L 2000 1525 
z
" transform="scale(0.015625)"/>
       </defs>
       <use xlink:href="#SimHei-32"/>
       <use xlink:href="#SimHei-30" x="50"/>
       <use xlink:href="#SimHei-32" x="100"/>
       <use xlink:href="#SimHei-31" x="150"/>
       <use xlink:href="#SimHei-2d" x="200"/>
       <use xlink:href="#SimHei-30" x="250"/>
       <use xlink:href="#SimHei-34" x="300"/>
      </g>
     </g>
    </g>
    <g id="xtick_3">
     <g id="line2d_3">
      <g>
       <use xlink:href="#m462e7bee2f" x="472.031776" y="921.6" style="stroke: #000000; stroke-width: 0.8"/>
      </g>
     </g>
     <g id="text_3">
      <!-- 2021-07 -->
      <g transform="translate(434.908709 956.74471) rotate(-30) scale(0.12 -0.12)">
       <defs>
        <path id="SimHei-37" d="M 850 150 
Q 1300 2050 2425 3925 
L 275 3925 
L 275 4375 
L 2950 4375 
L 2950 3950 
Q 1775 2050 1400 150 
L 850 150 
z
" transform="scale(0.015625)"/>
       </defs>
       <use xlink:href="#SimHei-32"/>
       <use xlink:href="#SimHei-30" x="50"/>
       <use xlink:href="#SimHei-32" x="100"/>
       <use xlink:href="#SimHei-31" x="150"/>
       <use xlink:href="#SimHei-2d" x="200"/>
       <use xlink:href="#SimHei-30" x="250"/>
       <use xlink:href="#SimHei-37" x="300"/>
      </g>
     </g>
    </g>
    <g id="xtick_4">
     <g id="line2d_4">
      <g>
       <use xlink:href="#m462e7bee2f" x="594.683789" y="921.6" style="stroke: #000000; stroke-width: 0.8"/>
      </g>
     </g>
     <g id="text_4">
      <!-- 2021-10 -->
      <g transform="translate(557.560722 956.74471) rotate(-30) scale(0.12 -0.12)">
       <use xlink:href="#SimHei-32"/>
       <use xlink:href="#SimHei-30" x="50"/>
       <use xlink:href="#SimHei-32" x="100"/>
       <use xlink:href="#SimHei-31" x="150"/>
       <use xlink:href="#SimHei-2d" x="200"/>
       <use xlink:href="#SimHei-31" x="250"/>
       <use xlink:href="#SimHei-30" x="300"/>
      </g>
     </g>
    </g>
    <g id="xtick_5">
     <g id="line2d_5">
      <g>
       <use xlink:href="#m462e7bee2f" x="717.335802" y="921.6" style="stroke: #000000; stroke-width: 0.8"/>
      </g>
     </g>
     <g id="text_5">
      <!-- 2022-01 -->
      <g transform="translate(680.212735 956.74471) rotate(-30) scale(0.12 -0.12)">
       <use xlink:href="#SimHei-32"/>
       <use xlink:href="#SimHei-30" x="50"/>
       <use xlink:href="#SimHei-32" x="100"/>
       <use xlink:href="#SimHei-32" x="150"/>
       <use xlink:href="#SimHei-2d" x="200"/>
       <use xlink:href="#SimHei-30" x="250"/>
       <use xlink:href="#SimHei-31" x="300"/>
      </g>
     </g>
    </g>
    <g id="xtick_6">
     <g id="line2d_6">
      <g>
       <use xlink:href="#m462e7bee2f" x="837.321467" y="921.6" style="stroke: #000000; stroke-width: 0.8"/>
      </g>
     </g>
     <g id="text_6">
      <!-- 2022-04 -->
      <g transform="translate(800.1984 956.74471) rotate(-30) scale(0.12 -0.12)">
       <use xlink:href="#SimHei-32"/>
       <use xlink:href="#SimHei-30" x="50"/>
       <use xlink:href="#SimHei-32" x="100"/>
       <use xlink:href="#SimHei-32" x="150"/>
       <use xlink:href="#SimHei-2d" x="200"/>
       <use xlink:href="#SimHei-30" x="250"/>
       <use xlink:href="#SimHei-34" x="300"/>
      </g>
     </g>
    </g>
    <g id="xtick_7">
     <g id="line2d_7">
      <g>
       <use xlink:href="#m462e7bee2f" x="958.640306" y="921.6" style="stroke: #000000; stroke-width: 0.8"/>
      </g>
     </g>
     <g id="text_7">
      <!-- 2022-07 -->
      <g transform="translate(921.517239 956.74471) rotate(-30) scale(0.12 -0.12)">
       <use xlink:href="#SimHei-32"/>
       <use xlink:href="#SimHei-30" x="50"/>
       <use xlink:href="#SimHei-32" x="100"/>
       <use xlink:href="#SimHei-32" x="150"/>
       <use xlink:href="#SimHei-2d" x="200"/>
       <use xlink:href="#SimHei-30" x="250"/>
       <use xlink:href="#SimHei-37" x="300"/>
      </g>
     </g>
    </g>
    <g id="xtick_8">
     <g id="line2d_8">
      <g>
       <use xlink:href="#m462e7bee2f" x="1081.292319" y="921.6" style="stroke: #000000; stroke-width: 0.8"/>
      </g>
     </g>
     <g id="text_8">
      <!-- 2022-10 -->
      <g transform="translate(1044.169252 956.74471) rotate(-30) scale(0.12 -0.12)">
       <use xlink:href="#SimHei-32"/>
       <use xlink:href="#SimHei-30" x="50"/>
       <use xlink:href="#SimHei-32" x="100"/>
       <use xlink:href="#SimHei-32" x="150"/>
       <use xlink:href="#SimHei-2d" x="200"/>
       <use xlink:href="#SimHei-31" x="250"/>
       <use xlink:href="#SimHei-30" x="300"/>
      </g>
     </g>
    </g>
    <g id="xtick_9">
     <g id="line2d_9">
      <g>
       <use xlink:href="#m462e7bee2f" x="1203.944332" y="921.6" style="stroke: #000000; stroke-width: 0.8"/>
      </g>
     </g>
     <g id="text_9">
      <!-- 2023-01 -->
      <g transform="translate(1166.821265 956.74471) rotate(-30) scale(0.12 -0.12)">
       <defs>
        <path id="SimHei-33" d="M 250 1225 
L 700 1300 
Q 800 975 1025 762 
Q 1250 550 1587 562 
Q 1925 575 2125 837 
Q 2325 1100 2300 1437 
Q 2275 1775 2037 1962 
Q 1800 2150 1275 2225 
L 1275 2550 
Q 1800 2600 2037 2825 
Q 2275 3050 2250 3412 
Q 2225 3775 1925 3937 
Q 1625 4100 1287 3975 
Q 950 3850 750 3275 
L 300 3350 
Q 450 3800 712 4100 
Q 975 4400 1425 4450 
Q 1875 4500 2212 4337 
Q 2550 4175 2687 3837 
Q 2825 3500 2725 3100 
Q 2625 2700 2150 2400 
Q 2500 2250 2687 1950 
Q 2875 1650 2812 1162 
Q 2750 675 2375 375 
Q 2000 75 1525 87 
Q 1050 100 700 387 
Q 350 675 250 1225 
z
" transform="scale(0.015625)"/>
       </defs>
       <use xlink:href="#SimHei-32"/>
       <use xlink:href="#SimHei-30" x="50"/>
       <use xlink:href="#SimHei-32" x="100"/>
       <use xlink:href="#SimHei-33" x="150"/>
       <use xlink:href="#SimHei-2d" x="200"/>
       <use xlink:href="#SimHei-30" x="250"/>
       <use xlink:href="#SimHei-31" x="300"/>
      </g>
     </g>
    </g>
    <g id="text_10">
     <!-- Date -->
     <g transform="translate(726 970.293748) scale(0.12 -0.12)">
      <defs>
       <path id="SimHei-44" d="M 2925 2250 
Q 2925 1100 2437 612 
Q 1950 125 1125 125 
L 275 125 
L 275 4400 
L 1125 4400 
Q 2050 4400 2487 3900 
Q 2925 3400 2925 2250 
z
M 2325 2250 
Q 2325 3175 2025 3550 
Q 1725 3925 1125 3925 
L 850 3925 
L 850 600 
L 1125 600 
Q 1725 600 2025 962 
Q 2325 1325 2325 2250 
z
" transform="scale(0.015625)"/>
       <path id="SimHei-61" d="M 2875 125 
L 2275 125 
Q 2225 175 2200 262 
Q 2175 350 2175 475 
Q 2000 275 1750 175 
Q 1500 75 1225 75 
Q 825 75 550 275 
Q 275 475 275 850 
Q 275 1225 525 1450 
Q 775 1675 1300 1750 
Q 1650 1800 1912 1875 
Q 2175 1950 2175 2075 
Q 2175 2225 2062 2375 
Q 1950 2525 1575 2525 
Q 1275 2525 1137 2412 
Q 1000 2300 950 2100 
L 400 2100 
Q 450 2500 762 2737 
Q 1075 2975 1575 2975 
Q 2125 2975 2400 2725 
Q 2675 2475 2675 2025 
L 2675 650 
Q 2675 500 2725 375 
Q 2775 250 2875 125 
z
M 2175 1050 
L 2175 1550 
Q 2025 1500 1887 1462 
Q 1750 1425 1425 1375 
Q 1050 1325 937 1200 
Q 825 1075 825 900 
Q 825 750 937 637 
Q 1050 525 1275 525 
Q 1500 525 1762 650 
Q 2025 775 2175 1050 
z
" transform="scale(0.015625)"/>
       <path id="SimHei-74" d="M 2750 200 
Q 2625 150 2462 112 
Q 2300 75 2025 75 
Q 1575 75 1300 325 
Q 1025 575 1025 1025 
L 1025 2525 
L 175 2525 
L 175 2925 
L 1025 2925 
L 1025 3900 
L 1525 3900 
L 1525 2925 
L 2550 2925 
L 2550 2525 
L 1525 2525 
L 1525 1000 
Q 1525 800 1625 662 
Q 1725 525 2000 525 
Q 2275 525 2450 575 
Q 2625 625 2750 700 
L 2750 200 
z
" transform="scale(0.015625)"/>
       <path id="SimHei-65" d="M 2850 1075 
Q 2800 625 2450 350 
Q 2100 75 1625 75 
Q 1025 75 637 462 
Q 250 850 250 1525 
Q 250 2200 637 2587 
Q 1025 2975 1625 2975 
Q 2150 2975 2487 2637 
Q 2825 2300 2825 1525 
L 800 1525 
Q 800 975 1037 750 
Q 1275 525 1625 525 
Q 1900 525 2075 662 
Q 2250 800 2300 1075 
L 2850 1075 
z
M 2250 1925 
Q 2200 2275 2025 2412 
Q 1850 2550 1575 2550 
Q 1325 2550 1125 2412 
Q 925 2275 825 1925 
L 2250 1925 
z
" transform="scale(0.015625)"/>
      </defs>
      <use xlink:href="#SimHei-44"/>
      <use xlink:href="#SimHei-61" x="50"/>
      <use xlink:href="#SimHei-74" x="100"/>
      <use xlink:href="#SimHei-65" x="150"/>
     </g>
    </g>
   </g>
   <g id="matplotlib.axis_2">
    <g id="ytick_1">
     <g id="line2d_10">
      <defs>
       <path id="m5d4f4b7b0b" d="M 0 0 
L -3.5 0 
" style="stroke: #000000; stroke-width: 0.8"/>
      </defs>
      <g>
       <use xlink:href="#m5d4f4b7b0b" x="180" y="828.726562" style="stroke: #000000; stroke-width: 0.8"/>
      </g>
     </g>
     <g id="text_11">
      <!-- 0 -->
      <g transform="translate(167 832.851562) scale(0.12 -0.12)">
       <use xlink:href="#SimHei-30"/>
      </g>
     </g>
    </g>
    <g id="ytick_2">
     <g id="line2d_11">
      <g>
       <use xlink:href="#m5d4f4b7b0b" x="180" y="728.067269" style="stroke: #000000; stroke-width: 0.8"/>
      </g>
     </g>
     <g id="text_12">
      <!-- 20000 -->
      <g transform="translate(143 732.192269) scale(0.12 -0.12)">
       <use xlink:href="#SimHei-32"/>
       <use xlink:href="#SimHei-30" x="50"/>
       <use xlink:href="#SimHei-30" x="100"/>
       <use xlink:href="#SimHei-30" x="150"/>
       <use xlink:href="#SimHei-30" x="200"/>
      </g>
     </g>
    </g>
    <g id="ytick_3">
     <g id="line2d_12">
      <g>
       <use xlink:href="#m5d4f4b7b0b" x="180" y="627.407977" style="stroke: #000000; stroke-width: 0.8"/>
      </g>
     </g>
     <g id="text_13">
      <!-- 40000 -->
      <g transform="translate(143 631.532977) scale(0.12 -0.12)">
       <use xlink:href="#SimHei-34"/>
       <use xlink:href="#SimHei-30" x="50"/>
       <use xlink:href="#SimHei-30" x="100"/>
       <use xlink:href="#SimHei-30" x="150"/>
       <use xlink:href="#SimHei-30" x="200"/>
      </g>
     </g>
    </g>
    <g id="ytick_4">
     <g id="line2d_13">
      <g>
       <use xlink:href="#m5d4f4b7b0b" x="180" y="526.748685" style="stroke: #000000; stroke-width: 0.8"/>
      </g>
     </g>
     <g id="text_14">
      <!-- 60000 -->
      <g transform="translate(143 530.873685) scale(0.12 -0.12)">
       <defs>
        <path id="SimHei-36" d="M 250 1612 
Q 275 1975 387 2225 
Q 500 2475 725 2850 
L 1750 4450 
L 2325 4450 
L 1275 2800 
Q 1950 2975 2350 2750 
Q 2750 2525 2887 2237 
Q 3025 1950 3037 1612 
Q 3050 1275 2937 950 
Q 2825 625 2537 362 
Q 2250 100 1737 75 
Q 1225 50 862 262 
Q 500 475 362 862 
Q 225 1250 250 1612 
z
M 1025 787 
Q 1250 550 1625 525 
Q 2000 500 2250 775 
Q 2500 1050 2500 1575 
Q 2500 2100 2187 2300 
Q 1875 2500 1487 2450 
Q 1100 2400 925 2075 
Q 750 1750 775 1387 
Q 800 1025 1025 787 
z
" transform="scale(0.015625)"/>
       </defs>
       <use xlink:href="#SimHei-36"/>
       <use xlink:href="#SimHei-30" x="50"/>
       <use xlink:href="#SimHei-30" x="100"/>
       <use xlink:href="#SimHei-30" x="150"/>
       <use xlink:href="#SimHei-30" x="200"/>
      </g>
     </g>
    </g>
    <g id="ytick_5">
     <g id="line2d_14">
      <g>
       <use xlink:href="#m5d4f4b7b0b" x="180" y="426.089393" style="stroke: #000000; stroke-width: 0.8"/>
      </g>
     </g>
     <g id="text_15">
      <!-- 80000 -->
      <g transform="translate(143 430.214393) scale(0.12 -0.12)">
       <defs>
        <path id="SimHei-38" d="M 175 1375 
Q 175 1675 325 1962 
Q 475 2250 825 2425 
Q 525 2600 425 2812 
Q 325 3025 312 3300 
Q 300 3575 387 3775 
Q 475 3975 650 4150 
Q 825 4325 1037 4387 
Q 1250 4450 1500 4450 
Q 1750 4450 1950 4400 
Q 2150 4350 2375 4187 
Q 2600 4025 2700 3725 
Q 2800 3425 2687 3025 
Q 2575 2625 2100 2400 
Q 2525 2275 2700 2012 
Q 2875 1750 2875 1375 
Q 2875 1000 2762 775 
Q 2650 550 2512 400 
Q 2375 250 2137 162 
Q 1900 75 1537 75 
Q 1175 75 912 162 
Q 650 250 475 425 
Q 300 600 237 837 
Q 175 1075 175 1375 
z
M 687 1400 
Q 675 1100 787 875 
Q 900 650 1200 587 
Q 1500 525 1825 600 
Q 2150 675 2275 950 
Q 2400 1225 2362 1500 
Q 2325 1775 2050 1962 
Q 1775 2150 1450 2125 
Q 1125 2100 912 1900 
Q 700 1700 687 1400 
z
M 775 3350 
Q 775 3100 950 2875 
Q 1125 2650 1500 2650 
Q 1875 2650 2062 2875 
Q 2250 3100 2237 3412 
Q 2225 3725 2012 3875 
Q 1800 4025 1437 4000 
Q 1075 3975 925 3787 
Q 775 3600 775 3350 
z
" transform="scale(0.015625)"/>
       </defs>
       <use xlink:href="#SimHei-38"/>
       <use xlink:href="#SimHei-30" x="50"/>
       <use xlink:href="#SimHei-30" x="100"/>
       <use xlink:href="#SimHei-30" x="150"/>
       <use xlink:href="#SimHei-30" x="200"/>
      </g>
     </g>
    </g>
    <g id="ytick_6">
     <g id="line2d_15">
      <g>
       <use xlink:href="#m5d4f4b7b0b" x="180" y="325.430101" style="stroke: #000000; stroke-width: 0.8"/>
      </g>
     </g>
     <g id="text_16">
      <!-- 100000 -->
      <g transform="translate(137 329.555101) scale(0.12 -0.12)">
       <use xlink:href="#SimHei-31"/>
       <use xlink:href="#SimHei-30" x="50"/>
       <use xlink:href="#SimHei-30" x="100"/>
       <use xlink:href="#SimHei-30" x="150"/>
       <use xlink:href="#SimHei-30" x="200"/>
       <use xlink:href="#SimHei-30" x="250"/>
      </g>
     </g>
    </g>
    <g id="ytick_7">
     <g id="line2d_16">
      <g>
       <use xlink:href="#m5d4f4b7b0b" x="180" y="224.770809" style="stroke: #000000; stroke-width: 0.8"/>
      </g>
     </g>
     <g id="text_17">
      <!-- 120000 -->
      <g transform="translate(137 228.895809) scale(0.12 -0.12)">
       <use xlink:href="#SimHei-31"/>
       <use xlink:href="#SimHei-32" x="50"/>
       <use xlink:href="#SimHei-30" x="100"/>
       <use xlink:href="#SimHei-30" x="150"/>
       <use xlink:href="#SimHei-30" x="200"/>
       <use xlink:href="#SimHei-30" x="250"/>
      </g>
     </g>
    </g>
    <g id="text_18">
     <!-- 数量 -->
     <g transform="translate(131.5 541.92) rotate(-90) scale(0.12 -0.12)">
      <defs>
       <path id="SimHei-6570" d="M 4525 4925 
Q 4475 4800 4400 4587 
Q 4325 4375 4175 3825 
L 5325 3825 
Q 5575 3825 5925 3850 
L 5925 3400 
Q 5650 3425 5500 3425 
Q 5500 3025 5362 2162 
Q 5225 1300 4875 675 
Q 5125 375 5437 137 
Q 5750 -100 6025 -200 
Q 5725 -425 5625 -625 
Q 5325 -450 5075 -225 
Q 4825 0 4575 325 
Q 4300 25 3987 -187 
Q 3675 -400 3200 -650 
Q 3075 -425 2850 -300 
Q 3225 -150 3650 125 
Q 4075 400 4300 675 
Q 4125 1025 3962 1425 
Q 3800 1825 3675 2475 
Q 3600 2275 3425 1950 
Q 3250 2050 3000 2150 
Q 3400 2850 3650 3675 
Q 3900 4500 3975 5100 
Q 4275 4975 4525 4925 
z
M 2100 2250 
Q 2000 2150 1875 1925 
L 3250 1925 
Q 3100 1300 2725 675 
Q 3125 525 3350 400 
Q 3225 225 3125 25 
Q 2900 175 2450 325 
Q 1950 -225 725 -650 
Q 600 -375 400 -275 
Q 1575 0 2000 475 
Q 1300 650 850 775 
Q 1000 1000 1250 1525 
Q 1000 1525 425 1500 
L 425 1950 
Q 900 1925 1400 1925 
Q 1500 2150 1550 2425 
Q 1825 2325 2100 2250 
z
M 1775 3950 
Q 1775 4550 1750 5100 
L 2250 5100 
Q 2225 4575 2225 3950 
Q 3075 3950 3425 3975 
L 3425 3525 
Q 3075 3550 2225 3550 
Q 2225 2825 2250 2425 
L 1750 2425 
Q 1775 2775 1775 3300 
Q 1650 3100 1300 2787 
Q 950 2475 650 2300 
Q 525 2525 275 2625 
Q 500 2700 875 2975 
Q 1250 3250 1450 3550 
Q 950 3550 500 3525 
L 500 3975 
Q 925 3950 1775 3950 
z
M 3975 3175 
Q 4200 1700 4600 1125 
Q 4850 1700 4937 2287 
Q 5025 2875 5050 3425 
L 4075 3425 
L 3975 3175 
z
M 1450 1000 
Q 1750 925 2275 800 
Q 2475 1050 2650 1525 
L 1725 1525 
Q 1600 1275 1450 1000 
z
M 3325 4825 
Q 3200 4625 3125 4450 
Q 3050 4275 2925 4025 
Q 2725 4125 2525 4175 
Q 2725 4500 2900 5000 
Q 3150 4875 3325 4825 
z
M 2575 3375 
Q 2900 3050 3200 2725 
Q 3050 2600 2875 2425 
Q 2525 2850 2300 3100 
Q 2450 3225 2575 3375 
z
M 925 5000 
Q 1275 4650 1500 4300 
L 1125 4075 
Q 950 4425 600 4725 
Q 825 4875 925 5000 
z
" transform="scale(0.015625)"/>
       <path id="SimHei-91cf" d="M 5250 2500 
Q 5225 2200 5225 1700 
Q 5225 1225 5250 950 
L 3425 950 
L 3425 625 
L 4575 625 
Q 5000 625 5375 650 
L 5375 275 
Q 5025 300 4575 300 
L 3425 300 
L 3425 -75 
L 5125 -75 
Q 5525 -75 5925 -50 
L 5925 -425 
Q 5525 -400 5125 -400 
L 1275 -400 
Q 900 -400 475 -425 
L 475 -50 
Q 925 -50 1275 -75 
L 2975 -75 
L 2975 300 
L 1725 300 
Q 1350 300 975 250 
L 975 650 
Q 1375 625 1725 625 
L 2975 625 
L 2975 950 
L 1150 950 
Q 1175 1375 1175 1775 
Q 1175 2175 1150 2500 
L 5250 2500 
z
M 5200 4950 
Q 5175 4575 5175 4250 
Q 5175 3925 5200 3400 
L 1200 3400 
Q 1225 3925 1225 4250 
Q 1225 4575 1200 4950 
L 5200 4950 
z
M 4900 3100 
Q 5500 3125 6000 3150 
L 6000 2750 
Q 5500 2775 4925 2775 
L 1650 2775 
Q 975 2775 325 2750 
L 325 3150 
Q 975 3125 1650 3100 
L 4900 3100 
z
M 4725 3700 
L 4725 4025 
L 1675 4025 
L 1675 3700 
L 4725 3700 
z
M 4725 4350 
L 4725 4650 
L 1675 4650 
L 1675 4350 
L 4725 4350 
z
M 4750 1875 
L 4750 2175 
L 3425 2175 
L 3425 1875 
L 4750 1875 
z
M 2975 1875 
L 2975 2175 
L 1650 2175 
L 1650 1875 
L 2975 1875 
z
M 2975 1275 
L 2975 1550 
L 1650 1550 
L 1650 1275 
L 2975 1275 
z
M 4750 1275 
L 4750 1550 
L 3425 1550 
L 3425 1275 
L 4750 1275 
z
" transform="scale(0.015625)"/>
      </defs>
      <use xlink:href="#SimHei-6570"/>
      <use xlink:href="#SimHei-91cf" x="100"/>
     </g>
    </g>
   </g>
   <g id="line2d_17">
    <path d="M 230.727273 827.352562 
L 232.060447 827.483419 
L 233.393621 827.921287 
L 234.726795 827.277068 
L 236.059969 827.780364 
L 237.393143 827.92632 
L 240.059491 826.859332 
L 241.392665 827.267002 
L 242.725839 827.513617 
L 244.059013 828.037046 
L 245.392187 826.436563 
L 246.725361 827.674672 
L 248.058535 827.79043 
L 249.391709 827.765265 
L 250.724884 827.870958 
L 252.058058 827.735068 
L 253.391232 827.835727 
L 254.724406 826.733508 
L 256.05758 827.055617 
L 257.390754 827.805529 
L 258.723928 826.501991 
L 260.057102 827.584079 
L 261.390276 827.317332 
L 262.72345 827.236804 
L 264.056624 827.483419 
L 265.389798 826.361068 
L 266.722972 826.3812 
L 268.056146 827.886057 
L 269.38932 827.19654 
L 272.055668 826.330871 
L 273.388842 827.387793 
L 274.722016 824.936739 
L 276.055191 827.186474 
L 277.388365 826.929793 
L 278.721539 825.580959 
L 280.054713 825.736981 
L 281.387887 826.51709 
L 282.721061 826.733508 
L 284.054235 824.977003 
L 285.387409 828.082342 
L 286.720583 827.277068 
L 289.386931 826.688211 
L 290.720105 827.02542 
L 292.053279 826.819068 
L 293.386453 827.584079 
L 294.719627 826.501991 
L 296.052801 827.760232 
L 297.385975 827.256936 
L 300.052323 827.79043 
L 301.385498 827.629375 
L 302.718672 827.221705 
L 304.051846 826.481859 
L 305.38502 827.800496 
L 306.718194 828.02698 
L 308.051368 827.986716 
L 309.384542 826.793903 
L 310.717716 828.06221 
L 312.05089 827.040519 
L 313.384064 827.181442 
L 314.717238 827.100914 
L 316.050412 824.876344 
L 317.383586 826.990189 
L 318.71676 827.387793 
L 320.049934 826.552321 
L 321.383108 827.906188 
L 322.716282 828.006848 
L 324.049456 826.330871 
L 325.382631 828.057177 
L 326.715805 827.725002 
L 328.048979 827.810562 
L 329.382153 826.210079 
L 330.715327 827.815595 
L 332.048501 827.79043 
L 333.381675 828.072276 
L 334.714849 827.599178 
L 336.048023 827.538782 
L 337.381197 826.642914 
L 338.714371 827.916254 
L 340.047545 827.558914 
L 341.380719 827.785397 
L 342.713893 827.629375 
L 344.047067 828.06221 
L 345.380241 828.057177 
L 346.713415 827.800496 
L 348.046589 827.855859 
L 349.379763 825.183355 
L 350.712938 827.850826 
L 352.046112 828.06221 
L 353.379286 827.100914 
L 354.71246 827.92632 
L 356.045634 827.805529 
L 357.378808 827.981683 
L 358.711982 827.538782 
L 361.37833 827.845793 
L 362.711504 827.458255 
L 364.044678 827.730035 
L 365.377852 828.344056 
L 366.711026 828.328957 
L 370.710548 827.619309 
L 372.043722 828.394386 
L 374.71007 827.015354 
L 376.043245 827.131112 
L 377.376419 827.956518 
L 378.709593 828.006848 
L 380.042767 827.860892 
L 381.375941 827.488452 
L 382.709115 827.89109 
L 384.042289 827.996782 
L 385.375463 827.901155 
L 386.708637 827.548848 
L 388.041811 828.032013 
L 389.374985 828.052144 
L 390.708159 827.699837 
L 393.374507 827.881024 
L 394.707681 827.760232 
L 396.040855 828.404452 
L 397.374029 827.347529 
L 398.707203 826.844233 
L 400.040377 827.649507 
L 401.373552 827.065683 
L 402.706726 826.884497 
L 404.0399 827.624342 
L 405.373074 826.320805 
L 406.706248 827.745134 
L 408.039422 827.609244 
L 409.372596 828.016914 
L 410.70577 827.775331 
L 413.372118 827.951485 
L 414.705292 827.201573 
L 416.038466 828.288694 
L 417.37164 827.508584 
L 418.704814 827.478386 
L 420.037988 827.765265 
L 422.704336 827.105947 
L 424.03751 827.639441 
L 425.370685 827.483419 
L 426.703859 827.795463 
L 428.037033 827.709903 
L 429.370207 828.1981 
L 430.703381 827.584079 
L 432.036555 825.278981 
L 433.369729 823.799289 
L 434.702903 827.337463 
L 436.036077 826.798936 
L 437.369251 826.56742 
L 438.702425 827.639441 
L 441.368773 826.285574 
L 442.701947 823.623136 
L 444.035121 826.351002 
L 445.368295 827.725002 
L 446.701469 827.775331 
L 448.034643 826.587552 
L 449.367817 827.820628 
L 450.700992 827.483419 
L 453.36734 827.43309 
L 454.700514 821.514323 
L 456.033688 823.039312 
L 457.366862 826.627815 
L 461.366384 827.765265 
L 462.699558 827.855859 
L 464.032732 828.157837 
L 465.365906 827.810562 
L 466.69908 827.97665 
L 468.032254 827.634408 
L 469.365428 827.901155 
L 470.698602 826.582519 
L 472.031776 827.679705 
L 473.36495 828.303793 
L 474.698124 828.339023 
L 476.031299 828.218232 
L 477.364473 827.126079 
L 478.697647 827.850826 
L 481.363995 827.226738 
L 482.697169 828.374254 
L 484.030343 827.951485 
L 485.363517 827.730035 
L 488.029865 828.394386 
L 489.363039 827.770298 
L 490.696213 826.079222 
L 492.029387 819.058237 
L 493.362561 825.037399 
L 494.695735 823.180235 
L 496.028909 820.537928 
L 497.362083 825.289047 
L 498.695257 822.742367 
L 500.028431 824.1063 
L 501.361606 824.911574 
L 502.69478 826.215112 
L 504.027954 824.171729 
L 505.361128 825.867838 
L 506.694302 820.849972 
L 508.027476 825.258849 
L 509.36065 825.445069 
L 510.693824 827.438123 
L 512.026998 824.483772 
L 513.360172 827.201573 
L 514.693346 827.151244 
L 516.02652 825.354475 
L 517.359694 821.383466 
L 518.692868 826.798936 
L 520.026042 825.273948 
L 521.359216 822.490719 
L 522.69239 329.386011 
L 524.025564 522.480731 
L 525.358739 223.542765 
L 526.691913 476.263017 
L 528.025087 310.79424 
L 529.358261 485.523672 
L 530.691435 289.484668 
L 532.024609 301.201409 
L 533.357783 327.478517 
L 534.690957 362.910588 
L 536.024131 453.478786 
L 537.357305 369.473574 
L 538.690479 209.737343 
L 540.023653 184.627883 
L 541.356827 656.98671 
L 542.690001 189.268276 
L 544.023175 375.503066 
L 545.356349 827.347529 
L 546.689523 828.691331 
L 560.021264 828.666166 
L 561.354438 828.605771 
L 562.687612 825.671552 
L 564.020786 716.707868 
L 565.35396 709.188619 
L 566.687134 687.949509 
L 568.020308 713.642793 
L 569.353482 736.678672 
L 570.686656 727.69483 
L 572.01983 667.339519 
L 574.686178 735.485859 
L 576.019353 678.482502 
L 577.352527 714.312177 
L 578.685701 732.395619 
L 580.018875 736.668606 
L 581.352049 744.429437 
L 582.685223 715.026858 
L 584.018397 704.558292 
L 585.351571 740.327571 
L 586.684745 548.148851 
L 588.017919 738.993836 
L 589.351093 676.127075 
L 590.684267 694.21555 
L 592.017441 709.606355 
L 593.350615 667.747189 
L 594.683789 693.541132 
L 596.016963 728.444742 
L 597.350137 708.645059 
L 598.683311 761.123781 
L 600.016485 665.069651 
L 601.34966 686.635905 
L 602.682834 738.44021 
L 604.016008 679.911864 
L 605.349182 664.430465 
L 606.682356 692.957308 
L 608.01553 698.770383 
L 609.348704 725.8276 
L 610.681878 716.566945 
L 613.348226 746.48792 
L 614.6814 708.121631 
L 616.014574 737.176935 
L 617.347748 687.350586 
L 618.680922 658.924402 
L 620.014096 176.152371 
L 621.34727 505.861882 
L 622.680444 514.614207 
L 624.013618 560.534977 
L 625.346792 647.856913 
L 626.679967 566.675193 
L 628.013141 700.018558 
L 629.346315 718.383846 
L 630.679489 733.573333 
L 633.345837 520.361853 
L 634.679011 545.008281 
L 636.012185 583.434966 
L 637.345359 565.864886 
L 638.678533 213.507034 
L 640.011707 372.100782 
L 641.344881 477.007896 
L 642.678055 643.865772 
L 644.011229 637.287687 
L 645.344403 657.193062 
L 646.677577 189.937661 
L 648.010751 583.550724 
L 649.343925 358.119206 
L 650.6771 643.11586 
L 652.010274 589.751336 
L 653.343448 656.010315 
L 654.676622 505.02641 
L 656.009796 513.265373 
L 657.34297 536.00934 
L 658.676144 702.80682 
L 660.009318 586.92281 
L 661.342492 551.304519 
L 662.675666 598.835837 
L 664.00884 560.54001 
L 665.342014 585.095844 
L 666.675188 600.7081 
L 668.008362 620.447387 
L 669.341536 634.433996 
L 670.67471 623.190353 
L 672.007884 653.378075 
L 673.341058 606.782888 
L 674.674232 611.901413 
L 676.007407 643.830541 
L 677.340581 629.733207 
L 678.673755 613.788775 
L 680.006929 543.276941 
L 681.340103 619.888728 
L 682.673277 637.624895 
L 684.006451 621.801255 
L 685.339625 619.813234 
L 686.672799 512.39467 
L 688.005973 598.438233 
L 689.339147 627.966636 
L 690.672321 314.911205 
L 692.005495 531.258221 
L 693.338669 586.78692 
L 694.671843 576.786419 
L 696.005017 563.519525 
L 697.338191 540.805755 
L 698.671365 693.052935 
L 700.004539 609.681876 
L 701.337714 650.16201 
L 702.670888 639.532389 
L 704.004062 523.557786 
L 705.337236 509.510781 
L 706.67041 632.868744 
L 708.003584 500.627599 
L 709.336758 595.921751 
L 710.669932 706.234269 
L 712.003106 639.849466 
L 713.33628 584.46169 
L 714.669454 611.196798 
L 716.002628 641.012081 
L 717.335802 652.985503 
L 718.668976 523.270907 
L 720.00215 651.57124 
L 721.335324 658.370776 
L 722.668498 724.28248 
L 724.001672 580.722198 
L 725.334846 611.820886 
L 726.668021 596.757223 
L 728.001195 530.10064 
L 729.334369 275.553422 
L 730.667543 553.357969 
L 732.000717 326.693375 
L 733.333891 317.7045 
L 734.667065 659.322006 
L 736.000239 597.70342 
L 737.333413 606.838251 
L 738.666587 636.955511 
L 739.999761 526.456773 
L 741.332935 457.651114 
L 742.666109 563.63025 
L 743.999283 652.824449 
L 745.332457 637.92184 
L 746.665631 604.014758 
L 747.998805 216.360725 
L 749.331979 656.62937 
L 750.665154 643.332277 
L 751.998328 483.047453 
L 753.331502 552.874804 
L 754.664676 503.556784 
L 755.99785 603.023264 
L 757.331024 774.340346 
L 758.664198 660.836928 
L 759.997372 594.296103 
L 761.330546 613.139523 
L 762.66372 665.421959 
L 763.996894 631.404151 
L 765.330068 618.494597 
L 766.663242 549.749333 
L 767.996416 590.078479 
L 769.32959 369.851046 
L 770.662764 634.630282 
L 771.995938 321.06652 
L 773.329112 256.981782 
L 774.662286 547.665686 
L 775.995461 562.477701 
L 777.328635 590.647204 
L 778.661809 613.204951 
L 779.994983 567.747215 
L 781.328157 643.11586 
L 782.661331 623.59299 
L 783.994505 559.422691 
L 785.327679 341.767104 
L 786.660853 618.217784 
L 787.994027 600.743331 
L 789.327201 595.524147 
L 790.660375 569.840928 
L 791.993549 500.808786 
L 793.326723 509.218869 
L 794.659897 661.622071 
L 795.993071 621.519409 
L 797.326245 616.154268 
L 798.659419 632.768085 
L 799.992593 577.77288 
L 801.325768 263.006241 
L 802.658942 620.507783 
L 805.32529 571.964839 
L 806.658464 404.593601 
L 807.991638 515.560405 
L 809.324812 580.923516 
L 810.657986 623.743979 
L 811.99116 585.271998 
L 813.324334 607.995833 
L 814.657508 643.432937 
L 815.990682 503.692674 
L 817.323856 630.538481 
L 818.65703 652.779152 
L 819.990204 652.854646 
L 822.656552 542.743447 
L 823.989726 525.883015 
L 825.3229 647.34355 
L 826.656075 527.569058 
L 827.989249 703.637259 
L 829.322423 630.634108 
L 830.655597 688.040102 
L 831.988771 575.241299 
L 833.321945 538.213779 
L 834.655119 591.392083 
L 835.988293 697.064208 
L 837.321467 657.610798 
L 838.654641 545.189467 
L 839.987815 641.611003 
L 841.320989 565.739062 
L 842.654163 549.855026 
L 843.987337 663.091696 
L 845.320511 614.08572 
L 846.653685 647.519704 
L 847.986859 614.00016 
L 849.320033 431.348841 
L 850.653208 652.814383 
L 851.986382 642.990036 
L 853.319556 619.85853 
L 854.65273 568.819236 
L 855.985904 533.82 
L 857.319078 663.116861 
L 858.652252 575.739563 
L 859.985426 499.751863 
L 861.3186 636.200566 
L 862.651774 577.360177 
L 863.984948 541.676458 
L 865.318122 611.971875 
L 866.651296 543.422897 
L 867.98447 657.781919 
L 869.317644 210.809365 
L 871.983992 577.27965 
L 873.317166 554.495419 
L 874.65034 541.913008 
L 875.983515 581.492241 
L 877.316689 535.178901 
L 878.649863 597.461838 
L 879.983037 517.53836 
L 881.316211 577.405474 
L 882.649385 643.231618 
L 883.982559 546.835247 
L 885.315733 545.038479 
L 886.648907 614.08572 
L 887.982081 525.651499 
L 889.315255 618.016465 
L 890.648429 597.054168 
L 891.981603 583.78224 
L 893.314777 658.350644 
L 894.647951 630.613976 
L 895.981125 509.530913 
L 897.314299 318.494676 
L 898.647473 395.076265 
L 899.980647 584.738503 
L 901.313822 452.029293 
L 902.646996 435.032971 
L 903.98017 645.828628 
L 905.313344 560.655768 
L 906.646518 578.205715 
L 907.979692 400.416241 
L 909.312866 564.511019 
L 910.64604 642.582366 
L 911.979214 526.441674 
L 913.312388 590.762962 
L 914.645562 690.611947 
L 915.978736 702.665897 
L 917.31191 682.408215 
L 918.645084 361.24971 
L 919.978258 663.272883 
L 921.311432 633.412304 
L 922.644606 637.448742 
L 923.97778 523.190379 
L 925.310954 536.492505 
L 926.644129 173.847273 
L 927.977303 615.464752 
L 929.310477 617.895674 
L 930.643651 602.338781 
L 931.976825 614.860797 
L 933.309999 649.180582 
L 934.643173 662.593433 
L 935.976347 644.112387 
L 937.309521 427.669744 
L 938.642695 643.312145 
L 941.309043 220.457558 
L 942.642217 475.397347 
L 943.975391 388.613939 
L 945.308565 572.513432 
L 946.641739 527.463366 
L 947.974913 590.506281 
L 949.308087 534.640374 
L 950.641261 646.699331 
L 951.974436 546.029973 
L 953.30761 713.174727 
L 954.640784 509.123243 
L 955.973958 569.508752 
L 957.307132 653.559261 
L 958.640306 571.441411 
L 959.97348 535.808021 
L 961.306654 716.647473 
L 962.639828 520.704095 
L 963.973002 641.268762 
L 965.306176 595.816058 
L 966.63935 654.837634 
L 967.972524 619.944091 
L 969.305698 683.575862 
L 970.638872 618.187586 
L 971.972046 511.685022 
L 973.30522 620.054816 
L 974.638394 602.348847 
L 975.971569 649.381901 
L 977.304743 690.75287 
L 978.637917 629.909361 
L 979.971091 610.668337 
L 981.304265 601.191265 
L 982.637439 590.279797 
L 983.970613 704.331808 
L 985.303787 586.459777 
L 986.636961 500.06894 
L 987.970135 692.464078 
L 989.303309 643.367508 
L 990.636483 658.028534 
L 991.969657 577.0431 
L 993.302831 683.324214 
L 994.636005 700.078953 
L 995.969179 656.438117 
L 998.635527 641.228498 
L 999.968701 625.651473 
L 1001.301876 219.123822 
L 1002.63505 599.147881 
L 1003.968224 275.226279 
L 1005.301398 659.332072 
L 1006.634572 646.090342 
L 1007.967746 565.145172 
L 1009.30092 561.566734 
L 1010.634094 643.906035 
L 1011.967268 695.594582 
L 1013.300442 517.467898 
L 1014.633616 574.556816 
L 1015.96679 582.216988 
L 1017.299964 565.416952 
L 1018.633138 500.516874 
L 1019.966312 518.182579 
L 1021.299486 641.988476 
L 1022.63266 546.306786 
L 1023.965834 568.255544 
L 1025.299008 599.711573 
L 1026.632183 650.846494 
L 1027.965357 321.912059 
L 1029.298531 594.180345 
L 1030.631705 647.252957 
L 1031.964879 502.605554 
L 1033.298053 651.354823 
L 1034.631227 614.911126 
L 1035.964401 538.812701 
L 1037.297575 542.803842 
L 1038.630749 530.931079 
L 1039.963923 512.228582 
L 1041.297097 575.810024 
L 1042.630271 656.85082 
L 1043.963445 638.405005 
L 1045.296619 595.93685 
L 1046.629793 661.018115 
L 1047.962967 586.137668 
L 1049.296141 588.593754 
L 1050.629315 591.724258 
L 1051.96249 543.51349 
L 1053.295664 655.134579 
L 1054.628838 625.706835 
L 1055.962012 504.724432 
L 1057.295186 729.385906 
L 1058.62836 646.598671 
L 1059.961534 647.61533 
L 1061.294708 628.137757 
L 1062.627882 630.040218 
L 1063.961056 648.933967 
L 1065.29423 658.315413 
L 1066.627404 561.435877 
L 1067.960578 624.715341 
L 1069.293752 577.435672 
L 1070.626926 640.881224 
L 1071.9601 549.185641 
L 1073.293274 601.402649 
L 1074.626448 584.567383 
L 1075.959623 598.845903 
L 1077.292797 637.388346 
L 1078.625971 616.144203 
L 1079.959145 650.554582 
L 1081.292319 634.207513 
L 1082.625493 661.50128 
L 1083.958667 516.410976 
L 1085.291841 708.262554 
L 1086.625015 516.652558 
L 1087.958189 654.535657 
L 1089.291363 635.792896 
L 1090.624537 558.234912 
L 1091.957711 590.118743 
L 1093.290885 525.112972 
L 1094.624059 661.148972 
L 1095.957233 639.768938 
L 1097.290407 637.327951 
L 1098.623581 539.763932 
L 1099.956755 610.21537 
L 1101.28993 534.590044 
L 1102.623104 520.080007 
L 1103.956278 645.06865 
L 1105.289452 609.359766 
L 1106.622626 526.673191 
L 1107.9558 525.95851 
L 1109.288974 658.864006 
L 1110.622148 622.314617 
L 1111.955322 539.124745 
L 1113.288496 500.864148 
L 1114.62167 595.418454 
L 1115.954844 654.092756 
L 1117.288018 659.825302 
L 1118.621192 564.450623 
L 1119.954366 706.259434 
L 1121.28754 549.633575 
L 1122.620714 661.345258 
L 1123.953888 654.535657 
L 1125.287062 510.904913 
L 1126.620237 567.027501 
L 1127.953411 521.962336 
L 1129.286585 524.388225 
L 1130.619759 647.403946 
L 1131.952933 610.014052 
L 1133.286107 617.840312 
L 1134.619281 677.234327 
L 1135.952455 406.586655 
L 1137.285629 587.254986 
L 1138.618803 561.768053 
L 1139.951977 586.620832 
L 1141.285151 682.785687 
L 1142.618325 744.132493 
L 1143.951499 631.222964 
L 1145.284673 729.330544 
L 1146.617847 690.954188 
L 1149.284195 799.857477 
L 1150.617369 828.70643 
L 1154.616892 828.716496 
L 1158.616414 828.067243 
L 1161.282762 809.737186 
L 1162.615936 811.59435 
L 1163.94911 730.664279 
L 1165.282284 749.396974 
L 1166.615458 737.106474 
L 1167.948632 733.578366 
L 1169.281806 589.585248 
L 1170.61498 688.382344 
L 1171.948154 727.946478 
L 1173.281328 714.699715 
L 1174.614502 593.702213 
L 1175.947677 629.778504 
L 1177.280851 600.52188 
L 1178.614025 664.214048 
L 1179.947199 779.42364 
L 1181.280373 770.907864 
L 1183.946721 680.022589 
L 1185.279895 691.291397 
L 1186.613069 696.339461 
L 1187.946243 517.160888 
L 1189.279417 735.355002 
L 1190.612591 713.642793 
L 1191.945765 667.757255 
L 1193.278939 742.833988 
L 1194.612113 716.934352 
L 1195.945287 650.21234 
L 1197.278461 686.500015 
L 1198.611635 640.564147 
L 1199.944809 710.356267 
L 1201.277984 726.502017 
L 1202.611158 699.560558 
L 1202.611158 699.560558 
" clip-path="url(#p689274e9f3)" style="fill: none; stroke: #1f77b4; stroke-width: 1.5; stroke-linecap: square"/>
   </g>
   <g id="line2d_18">
    <path d="M 636.012185 627.768353 
L 637.345359 660.171786 
L 638.678533 664.482402 
L 640.011707 614.396989 
L 641.344881 616.319727 
L 642.678055 519.212898 
L 644.011229 629.005693 
L 645.344403 641.486157 
L 646.677577 644.202813 
L 648.010751 570.523464 
L 649.343925 584.705119 
L 650.6771 581.490531 
L 652.010274 574.26531 
L 653.343448 614.775063 
L 654.676622 603.934089 
L 656.009796 606.048288 
L 657.34297 613.493807 
L 658.676144 512.494847 
L 660.009318 613.33041 
L 661.342492 610.803473 
L 662.675666 572.198331 
L 664.00884 594.777986 
L 665.342014 574.703783 
L 666.675188 603.079183 
L 668.008362 586.831006 
L 669.341536 609.844929 
L 670.67471 585.505787 
L 673.341058 630.449598 
L 674.674232 546.848726 
L 676.007407 602.236183 
L 677.340581 607.751827 
L 678.673755 581.56809 
L 680.006929 603.806473 
L 681.340103 576.625257 
L 682.673277 610.407686 
L 684.006451 582.427969 
L 685.339625 615.51275 
L 686.672799 595.964847 
L 688.005973 598.620757 
L 689.339147 617.55365 
L 690.672321 549.291693 
L 692.005495 567.478762 
L 693.338669 572.697604 
L 694.671843 581.467214 
L 696.005017 585.306849 
L 697.338191 577.052985 
L 698.671365 593.501199 
L 700.004539 581.811087 
L 701.337714 609.759921 
L 702.670888 578.414321 
L 704.004062 609.085725 
L 705.337236 611.034143 
L 706.67041 510.72335 
L 708.003584 598.272869 
L 709.336758 592.056165 
L 710.669932 564.925597 
L 712.003106 602.505608 
L 713.33628 587.214614 
L 714.669454 614.639677 
L 716.002628 577.315093 
L 717.335802 613.249929 
L 718.668976 580.823773 
L 720.00215 585.582149 
L 721.335324 612.833633 
L 722.668498 548.743569 
L 724.001672 613.61318 
L 725.334846 609.620011 
L 726.668021 585.091373 
L 728.001195 595.515432 
L 729.334369 567.479805 
L 730.667543 569.712572 
L 732.000717 555.145703 
L 733.333891 572.182382 
L 734.667065 516.227165 
L 736.000239 582.486092 
L 737.333413 611.643894 
L 738.666587 555.878091 
L 739.999761 594.045793 
L 741.332935 592.641181 
L 742.666109 559.57087 
L 743.999283 570.392489 
L 745.332457 559.231866 
L 746.665631 615.608913 
L 747.998805 568.434247 
L 749.331979 543.111869 
L 750.665154 554.140143 
L 751.998328 605.217584 
L 753.331502 599.028095 
L 754.664676 536.293701 
L 755.99785 569.012535 
L 758.664198 599.646494 
L 759.997372 604.926308 
L 761.330546 558.749265 
L 762.66372 610.97943 
L 763.996894 549.280974 
L 765.330068 603.621934 
L 766.663242 587.956999 
L 767.996416 580.845557 
L 769.32959 600.48776 
L 770.662764 519.832053 
L 771.995938 574.47891 
L 773.329112 568.597612 
L 774.662286 525.688719 
L 775.995461 560.327498 
L 777.328635 558.217034 
L 778.661809 607.695285 
L 779.994983 548.843918 
L 781.328157 600.802964 
L 782.661331 577.088848 
L 783.994505 589.984496 
L 785.327679 586.118062 
L 786.660853 521.827511 
L 789.327201 587.167313 
L 790.660375 586.421237 
L 791.993549 579.877991 
L 793.326723 542.853559 
L 794.659897 594.595287 
L 795.993071 554.022283 
L 797.326245 601.470668 
L 798.659419 581.828173 
L 799.992593 591.346524 
L 801.325768 572.374168 
L 802.658942 524.265934 
L 803.992116 545.902834 
L 805.32529 573.504715 
L 806.658464 580.63106 
L 809.324812 533.4539 
L 810.657986 605.944437 
L 811.99116 543.946163 
L 813.324334 599.017094 
L 814.657508 585.324311 
L 815.990682 586.051205 
L 817.323856 546.778918 
L 818.65703 566.769336 
L 819.990204 584.731066 
L 821.323378 597.988591 
L 822.656552 578.151054 
L 823.989726 571.191859 
L 825.3229 547.134613 
L 826.656075 619.014297 
L 827.989249 542.633478 
L 829.322423 607.951295 
L 830.655597 597.965509 
L 831.988771 589.929452 
L 833.321945 560.203994 
L 834.655119 568.2725 
L 835.988293 567.271252 
L 837.321467 589.486636 
L 838.654641 585.850085 
L 839.987815 575.237602 
L 841.320989 571.323414 
L 842.654163 610.119026 
L 843.987337 550.063502 
L 845.320511 608.066073 
L 846.653685 600.335663 
L 849.320033 563.523411 
L 850.653208 560.91089 
L 851.986382 577.811819 
L 853.319556 592.27397 
L 854.65273 579.929187 
L 855.985904 578.087603 
L 857.319078 558.223664 
L 858.652252 612.644672 
L 859.985426 569.817366 
L 861.3186 590.780244 
L 862.651774 596.809845 
L 863.984948 578.826096 
L 865.318122 529.57482 
L 866.651296 585.086997 
L 867.98447 580.702095 
L 869.317644 589.254504 
L 870.650818 524.8833 
L 871.983992 528.59703 
L 873.317166 556.72936 
L 874.65034 601.482811 
L 875.983515 551.822855 
L 877.316689 600.290535 
L 878.649863 587.597405 
L 879.983037 569.965842 
L 881.316211 534.297047 
L 882.649385 579.111638 
L 883.982559 594.069056 
L 885.315733 556.974955 
L 886.648907 549.81308 
L 887.982081 575.123358 
L 889.315255 568.617008 
L 890.648429 600.621954 
L 891.981603 565.589299 
L 893.314777 601.145065 
L 894.647951 604.769839 
L 895.981125 576.960191 
L 897.314299 542.164758 
L 898.647473 548.785806 
L 899.980647 548.138208 
L 901.313822 542.293398 
L 902.646996 541.781174 
L 903.98017 548.305363 
L 905.313344 571.379872 
L 906.646518 598.819324 
L 907.979692 566.24416 
L 909.312866 578.781505 
L 910.64604 584.996654 
L 911.979214 569.173194 
L 913.312388 524.843232 
L 914.645562 577.8109 
L 915.978736 602.047389 
L 917.31191 580.846266 
L 918.645084 575.073346 
L 919.978258 556.332888 
L 921.311432 572.625362 
L 922.644606 608.084952 
L 923.97778 565.227661 
L 925.310954 600.846714 
L 926.644129 592.46283 
L 927.977303 507.917281 
L 929.310477 509.575833 
L 930.643651 588.391106 
L 931.976825 603.446108 
L 933.309999 557.60603 
L 934.643173 545.125232 
L 935.976347 601.448365 
L 937.309521 590.936677 
L 938.642695 581.768078 
L 939.975869 549.087313 
L 941.309043 581.747739 
L 942.642217 523.027211 
L 943.975391 530.780107 
L 945.308565 515.488467 
L 946.641739 577.241493 
L 947.974913 590.295489 
L 949.308087 558.746376 
L 950.641261 539.286617 
L 951.974436 591.145481 
L 953.30761 570.399465 
L 954.640784 614.31602 
L 955.973958 547.477546 
L 957.307132 569.880224 
L 958.640306 575.424698 
L 959.97348 560.867502 
L 961.306654 534.972378 
L 962.639828 592.749199 
L 963.973002 597.29723 
L 965.306176 558.246428 
L 966.63935 560.407756 
L 967.972524 594.428791 
L 969.305698 584.76744 
L 970.638872 608.568202 
L 971.972046 555.000377 
L 973.30522 572.214498 
L 974.638394 581.194224 
L 975.971569 555.361231 
L 977.304743 561.853069 
L 978.637917 595.740032 
L 979.971091 614.846334 
L 981.304265 565.041443 
L 982.637439 556.380448 
L 983.970613 590.531469 
L 985.303787 605.622839 
L 986.636961 601.100755 
L 987.970135 534.76576 
L 989.303309 599.092364 
L 990.636483 584.178526 
L 991.969657 576.91373 
L 993.302831 568.448004 
L 994.636005 593.489236 
L 995.969179 623.786795 
L 997.302353 581.413542 
L 998.635527 569.28475 
L 999.968701 609.883626 
L 1001.301876 590.00157 
L 1002.63505 551.089658 
L 1003.968224 528.405743 
L 1005.301398 543.669739 
L 1006.634572 563.762119 
L 1007.967746 573.347334 
L 1009.30092 571.491018 
L 1010.634094 585.35399 
L 1011.967268 609.95814 
L 1014.633616 561.081919 
L 1015.96679 593.346667 
L 1017.299964 559.85265 
L 1018.633138 587.934017 
L 1019.966312 526.533793 
L 1021.299486 576.000872 
L 1022.63266 581.42621 
L 1023.965834 556.477595 
L 1025.299008 568.685441 
L 1026.632183 591.409054 
L 1027.965357 620.141927 
L 1029.298531 537.214403 
L 1030.631705 551.054826 
L 1031.964879 603.771873 
L 1033.298053 554.203406 
L 1034.631227 591.793276 
L 1035.964401 536.20677 
L 1037.297575 590.874833 
L 1038.630749 568.568214 
L 1039.963923 551.922974 
L 1041.297097 563.420165 
L 1042.630271 587.306576 
L 1043.963445 601.144458 
L 1045.296619 577.54725 
L 1046.629793 575.802295 
L 1047.962967 602.624932 
L 1049.296141 581.255075 
L 1050.629315 585.016136 
L 1051.96249 542.273419 
L 1053.295664 586.557704 
L 1054.628838 579.961659 
L 1055.962012 568.494066 
L 1057.295186 573.698443 
L 1058.62836 612.282134 
L 1059.961534 607.187197 
L 1061.294708 584.187679 
L 1062.627882 588.64245 
L 1063.961056 599.770698 
L 1065.29423 576.122295 
L 1066.627404 602.501094 
L 1067.960578 534.904041 
L 1069.293752 600.157572 
L 1070.626926 581.865732 
L 1071.9601 560.918645 
L 1073.293274 588.316193 
L 1074.626448 602.916809 
L 1075.959623 605.999339 
L 1077.292797 573.484103 
L 1078.625971 587.846103 
L 1079.959145 604.050791 
L 1081.292319 578.178483 
L 1081.292319 578.178483 
" clip-path="url(#p689274e9f3)" style="fill: none; stroke: #ff7f0e; stroke-width: 1.5; stroke-linecap: square"/>
   </g>
   <g id="line2d_19">
    <path d="M 636.012185 627.768353 
L 637.345359 666.746277 
L 638.678533 683.233861 
L 640.011707 693.769202 
L 641.344881 707.169472 
L 642.678055 593.342184 
L 644.011229 660.059983 
L 645.344403 663.772343 
L 646.677577 668.749504 
L 648.010751 665.247104 
L 649.343925 660.629507 
L 650.6771 666.644182 
L 652.010274 640.921843 
L 653.343448 670.95439 
L 654.676622 679.094304 
L 656.009796 688.647032 
L 657.34297 701.986926 
L 658.676144 585.263148 
L 660.009318 653.558153 
L 661.342492 656.777631 
L 662.675666 665.164276 
L 664.00884 656.626485 
L 665.342014 653.293366 
L 666.675188 662.447397 
L 668.008362 649.942566 
L 669.341536 670.514735 
L 672.007884 688.450523 
L 673.341058 700.478204 
L 674.674232 586.790314 
L 676.007407 651.648735 
L 677.340581 655.062936 
L 678.673755 661.791013 
L 680.006929 657.575976 
L 681.340103 655.599483 
L 682.673277 663.1418 
L 684.006451 631.614841 
L 685.339625 662.703468 
L 686.672799 671.840463 
L 688.005973 681.927451 
L 689.339147 696.674693 
L 690.672321 584.196571 
L 692.005495 651.536233 
L 693.338669 655.559044 
L 694.671843 662.743692 
L 696.005017 654.919166 
L 697.338191 649.495473 
L 698.671365 657.772224 
L 700.004539 630.373762 
L 701.337714 661.701434 
L 704.004062 681.345277 
L 705.337236 696.105875 
L 706.67041 583.735176 
L 708.003584 651.04429 
L 709.336758 655.116601 
L 710.669932 662.228214 
L 712.003106 654.659429 
L 713.33628 649.286852 
L 714.669454 657.486661 
L 716.002628 629.715222 
L 717.335802 661.323853 
L 720.00215 680.998281 
L 721.335324 695.810589 
L 722.668498 583.347516 
L 724.001672 650.781765 
L 725.334846 654.863128 
L 726.668021 662.050488 
L 728.001195 654.370426 
L 729.334369 648.991548 
L 730.667543 657.260099 
L 732.000717 630.144203 
L 733.333891 661.393859 
L 736.000239 681.045966 
L 737.333413 695.774334 
L 738.666587 583.281309 
L 739.999761 650.637354 
L 741.332935 654.70677 
L 742.666109 661.886429 
L 743.999283 654.340991 
L 745.332457 649.089942 
L 746.665631 657.339677 
L 747.998805 630.076897 
L 749.331979 661.329939 
L 751.998328 680.979726 
L 753.331502 695.714392 
L 754.664676 583.224013 
L 755.99785 650.586588 
L 757.331024 654.658971 
L 758.664198 661.845023 
L 759.997372 654.292799 
L 761.330546 649.041228 
L 762.66372 657.297017 
L 763.996894 630.048727 
L 765.330068 661.297547 
L 767.996416 680.952058 
L 769.32959 695.687931 
L 770.662764 583.203304 
L 771.995938 650.564179 
L 773.329112 654.638364 
L 774.662286 661.823668 
L 775.995461 654.276332 
L 777.328635 649.025805 
L 778.661809 657.280832 
L 779.994983 630.011995 
L 781.328157 661.274792 
L 783.994505 680.932586 
L 785.327679 695.672484 
L 786.660853 583.189868 
L 787.994027 650.554483 
L 789.327201 654.629993 
L 790.660375 661.816441 
L 791.993549 654.26522 
L 793.326723 649.011023 
L 794.659897 657.267424 
L 795.993071 630.004702 
L 797.326245 661.267794 
L 799.992593 680.926765 
L 801.325768 695.666899 
L 802.658942 583.184618 
L 803.992116 650.54942 
L 805.32529 654.625235 
L 806.658464 661.811862 
L 807.991638 654.261312 
L 809.324812 649.007567 
L 810.657986 657.264081 
L 811.99116 630.001205 
L 813.324334 661.264643 
L 815.990682 680.923955 
L 817.323856 695.664264 
L 818.65703 583.181997 
L 819.990204 650.547049 
L 821.323378 654.622992 
L 822.656552 661.809827 
L 823.989726 654.259303 
L 825.3229 649.005709 
L 826.656075 657.262398 
L 827.989249 630.000347 
L 829.322423 661.263429 
L 831.988771 680.922867 
L 833.321945 695.663147 
L 834.655119 583.180916 
L 835.988293 650.545934 
L 837.321467 654.621922 
L 838.654641 661.808801 
L 839.987815 654.258491 
L 841.320989 649.005098 
L 842.654163 657.261808 
L 843.987337 629.999598 
L 845.320511 661.26274 
L 847.986859 680.92225 
L 849.320033 695.662575 
L 850.653208 583.180381 
L 851.986382 650.545439 
L 853.319556 654.621459 
L 854.65273 661.808371 
L 855.985904 654.258072 
L 857.319078 649.004694 
L 858.652252 657.261433 
L 859.985426 629.999258 
L 861.3186 661.262419 
L 863.984948 680.92197 
L 865.318122 695.662312 
L 866.651296 583.180141 
L 867.98447 650.54521 
L 869.317644 654.621245 
L 870.650818 661.808169 
L 871.983992 654.257885 
L 873.317166 649.004517 
L 874.65034 657.261265 
L 875.983515 629.999076 
L 877.316689 661.262263 
L 879.983037 680.921833 
L 881.316211 695.662188 
L 882.649385 583.180025 
L 883.982559 650.545105 
L 885.315733 654.621148 
L 886.648907 661.808078 
L 887.982081 654.257795 
L 889.315255 649.004427 
L 890.648429 657.261182 
L 891.981603 629.999005 
L 893.314777 661.262196 
L 895.981125 680.921774 
L 897.314299 695.662132 
L 898.647473 583.179973 
L 899.980647 650.545056 
L 901.313822 654.621102 
L 902.646996 661.808034 
L 903.98017 654.257755 
L 905.313344 649.00439 
L 906.646518 657.261147 
L 907.979692 629.998972 
L 909.312866 661.262164 
L 911.979214 680.921747 
L 913.312388 695.662106 
L 914.645562 583.179948 
L 915.978736 650.545033 
L 917.31191 654.62108 
L 918.645084 661.808014 
L 919.978258 654.257736 
L 921.311432 649.004372 
L 922.644606 657.26113 
L 923.97778 629.998957 
L 925.310954 661.26215 
L 927.977303 680.921734 
L 929.310477 695.662094 
L 930.643651 583.179937 
L 931.976825 650.545023 
L 933.309999 654.62107 
L 934.643173 661.808005 
L 935.976347 654.257727 
L 937.309521 649.004365 
L 938.642695 657.261123 
L 939.975869 629.99895 
L 941.309043 661.262143 
L 943.975391 680.921728 
L 945.308565 695.662089 
L 946.641739 583.179932 
L 947.974913 650.545018 
L 949.308087 654.621066 
L 950.641261 661.808001 
L 951.974436 654.257723 
L 953.30761 649.004361 
L 954.640784 657.261119 
L 955.973958 629.998947 
L 957.307132 661.26214 
L 959.97348 680.921726 
L 961.306654 695.662086 
L 962.639828 583.179929 
L 963.973002 650.545016 
L 965.306176 654.621064 
L 966.63935 661.807999 
L 967.972524 654.257722 
L 969.305698 649.004359 
L 970.638872 657.261118 
L 971.972046 629.998945 
L 973.30522 661.262139 
L 975.971569 680.921724 
L 977.304743 695.662085 
L 978.637917 583.179928 
L 979.971091 650.545015 
L 981.304265 654.621063 
L 982.637439 661.807998 
L 983.970613 654.257721 
L 985.303787 649.004358 
L 986.636961 657.261117 
L 987.970135 629.998945 
L 989.303309 661.262138 
L 991.969657 680.921724 
L 993.302831 695.662084 
L 994.636005 583.179928 
L 995.969179 650.545014 
L 997.302353 654.621062 
L 998.635527 661.807997 
L 999.968701 654.25772 
L 1001.301876 649.004358 
L 1002.63505 657.261117 
L 1003.968224 629.998944 
L 1005.301398 661.262138 
L 1007.967746 680.921724 
L 1009.30092 695.662084 
L 1010.634094 583.179928 
L 1011.967268 650.545014 
L 1013.300442 654.621062 
L 1014.633616 661.807997 
L 1015.96679 654.25772 
L 1017.299964 649.004358 
L 1018.633138 657.261117 
L 1019.966312 629.998944 
L 1021.299486 661.262138 
L 1023.965834 680.921723 
L 1025.299008 695.662084 
L 1026.632183 583.179927 
L 1027.965357 650.545014 
L 1029.298531 654.621062 
L 1030.631705 661.807997 
L 1031.964879 654.25772 
L 1033.298053 649.004358 
L 1034.631227 657.261116 
L 1035.964401 629.998944 
L 1037.297575 661.262138 
L 1039.963923 680.921723 
L 1041.297097 695.662084 
L 1042.630271 583.179927 
L 1043.963445 650.545014 
L 1045.296619 654.621062 
L 1046.629793 661.807997 
L 1047.962967 654.25772 
L 1049.296141 649.004358 
L 1050.629315 657.261116 
L 1051.96249 629.998944 
L 1053.295664 661.262138 
L 1055.962012 680.921723 
L 1057.295186 695.662084 
L 1058.62836 583.179927 
L 1059.961534 650.545014 
L 1061.294708 654.621062 
L 1062.627882 661.807997 
L 1063.961056 654.25772 
L 1065.29423 649.004358 
L 1066.627404 657.261116 
L 1067.960578 629.998944 
L 1069.293752 661.262138 
L 1071.9601 680.921723 
L 1073.293274 695.662084 
L 1074.626448 583.179927 
L 1075.959623 650.545014 
L 1077.292797 654.621062 
L 1078.625971 661.807997 
L 1079.959145 654.25772 
L 1081.292319 649.004358 
L 1081.292319 649.004358 
" clip-path="url(#p689274e9f3)" style="fill: none; stroke: #2ca02c; stroke-width: 1.5; stroke-linecap: square"/>
   </g>
   <g id="line2d_20">
    <path d="M 1082.625493 593.653676 
L 1083.958667 542.807707 
L 1085.291841 595.158501 
L 1086.625015 582.877123 
L 1087.958189 555.010385 
L 1089.291363 588.618108 
L 1090.624537 601.000799 
L 1091.957711 596.217952 
L 1093.290885 579.97463 
L 1094.624059 583.71103 
L 1095.957233 596.917715 
L 1097.290407 576.702814 
L 1098.623581 583.664209 
L 1099.956755 538.644845 
L 1101.28993 590.110327 
L 1102.623104 580.04857 
L 1103.956278 554.606159 
L 1105.289452 584.290713 
L 1106.622626 601.369631 
L 1107.9558 596.204526 
L 1109.288974 579.834157 
L 1110.622148 585.449293 
L 1111.955322 595.703087 
L 1113.288496 575.510627 
L 1114.62167 584.623028 
L 1115.954844 536.422963 
L 1117.288018 592.733176 
L 1118.621192 579.936313 
L 1119.954366 552.97608 
L 1121.28754 588.876593 
L 1122.620714 603.362225 
L 1123.953888 597.881125 
L 1125.287062 579.885352 
L 1126.620237 586.09411 
L 1127.953411 596.018734 
L 1129.286585 576.751104 
L 1130.619759 583.52441 
L 1131.952933 539.320443 
L 1133.286107 592.074844 
L 1134.619281 581.953938 
L 1135.952455 552.785687 
L 1137.285629 589.241105 
L 1138.618803 602.728478 
L 1139.951977 597.921145 
L 1141.285151 581.866705 
L 1142.618325 587.181847 
L 1143.951499 597.873138 
L 1145.284673 578.722768 
L 1146.617847 583.873491 
L 1147.951021 539.411537 
L 1149.284195 592.233035 
L 1150.617369 582.00241 
L 1151.950544 552.804668 
L 1153.283718 589.342209 
L 1154.616892 602.704767 
L 1155.950066 597.900308 
L 1157.28324 581.824201 
L 1158.616414 587.087794 
L 1159.949588 597.869619 
L 1161.282762 578.710028 
L 1162.615936 583.834821 
L 1163.94911 539.460651 
L 1165.282284 592.13781 
L 1166.615458 581.985879 
L 1167.948632 552.857577 
L 1169.281806 589.173456 
L 1170.61498 602.636129 
L 1171.948154 597.838089 
L 1173.281328 581.80544 
L 1174.614502 587.055965 
L 1175.947677 597.842237 
L 1177.280851 578.650001 
L 1178.614025 583.868464 
L 1179.947199 539.355462 
L 1181.280373 592.158942 
L 1182.613547 581.913241 
L 1183.946721 552.8608 
L 1185.279895 589.161275 
L 1186.613069 602.657751 
L 1187.946243 597.836229 
L 1189.279417 581.735409 
L 1190.612591 587.017775 
L 1191.945765 597.776725 
L 1193.278939 578.581209 
L 1194.612113 583.854591 
L 1195.945287 539.35276 
L 1197.278461 592.152524 
L 1198.611635 581.912 
L 1199.944809 552.858668 
L 1201.277984 589.158228 
L 1202.611158 602.657732 
L 1203.944332 597.836583 
L 1205.277506 581.737602 
L 1206.61068 587.021279 
L 1207.943854 597.77763 
L 1209.277028 578.582775 
L 1210.610202 583.855354 
L 1211.943376 539.351272 
L 1213.27655 592.155273 
L 1214.609724 581.912608 
L 1215.942898 552.856369 
L 1217.276072 589.163802 
L 1218.609246 602.659549 
L 1219.94242 597.838362 
L 1221.275594 581.738341 
L 1222.608768 587.022244 
L 1223.941942 597.778707 
L 1225.275116 578.585019 
L 1226.608291 583.853982 
L 1227.941465 539.354716 
L 1229.274639 592.154278 
L 1230.607813 581.914898 
L 1231.940987 552.856096 
L 1233.274161 589.163932 
L 1234.607335 602.658567 
L 1235.940509 597.838207 
L 1237.273683 581.740579 
L 1238.606857 587.02337 
L 1239.940031 597.78081 
L 1241.273205 578.587218 
L 1242.606379 583.854354 
L 1243.939553 539.354629 
L 1245.272727 592.154386 
" clip-path="url(#p689274e9f3)" style="fill: none; stroke: #d62728; stroke-width: 1.5; stroke-linecap: square"/>
   </g>
   <g id="patch_3">
    <path d="M 180 921.6 
L 180 138.24 
" style="fill: none; stroke: #000000; stroke-width: 0.8; stroke-linejoin: miter; stroke-linecap: square"/>
   </g>
   <g id="patch_4">
    <path d="M 1296 921.6 
L 1296 138.24 
" style="fill: none; stroke: #000000; stroke-width: 0.8; stroke-linejoin: miter; stroke-linecap: square"/>
   </g>
   <g id="patch_5">
    <path d="M 180 921.6 
L 1296 921.6 
" style="fill: none; stroke: #000000; stroke-width: 0.8; stroke-linejoin: miter; stroke-linecap: square"/>
   </g>
   <g id="patch_6">
    <path d="M 180 138.24 
L 1296 138.24 
" style="fill: none; stroke: #000000; stroke-width: 0.8; stroke-linejoin: miter; stroke-linecap: square"/>
   </g>
   <g id="legend_1">
    <g id="patch_7">
     <path d="M 188.4 915.6 
L 550.8 915.6 
Q 553.2 915.6 553.2 913.2 
L 553.2 846.525 
Q 553.2 844.125 550.8 844.125 
L 188.4 844.125 
Q 186 844.125 186 846.525 
L 186 913.2 
Q 186 915.6 188.4 915.6 
z
" style="fill: #ffffff; opacity: 0.8; stroke: #cccccc; stroke-linejoin: miter"/>
    </g>
    <g id="line2d_21">
     <path d="M 190.8 854.19375 
L 202.8 854.19375 
L 214.8 854.19375 
" style="fill: none; stroke: #1f77b4; stroke-width: 1.5; stroke-linecap: square"/>
    </g>
    <g id="text_19">
     <!-- 货量 -->
     <g transform="translate(224.4 858.39375) scale(0.12 -0.12)">
      <defs>
       <path id="SimHei-8d27" d="M 3975 5075 
Q 3950 4750 3950 4100 
Q 4075 4175 4525 4375 
Q 4975 4575 5375 4900 
Q 5550 4625 5700 4400 
Q 5425 4325 4987 4112 
Q 4550 3900 3950 3650 
L 3950 3225 
Q 3950 3025 4300 3025 
L 5125 3025 
Q 5425 3025 5487 3150 
Q 5550 3275 5575 3625 
Q 5850 3450 6125 3375 
Q 5975 2875 5825 2750 
Q 5675 2625 5475 2625 
L 4000 2625 
Q 3425 2625 3425 3125 
L 3425 3525 
Q 2900 3325 2575 3225 
Q 2425 3500 2350 3650 
Q 2750 3750 3425 3925 
Q 3425 4750 3400 5075 
L 3975 5075 
z
M 5200 2200 
Q 5175 1825 5175 1425 
Q 5175 1050 5200 600 
L 4625 600 
L 4625 1775 
L 1950 1775 
L 1950 625 
L 1400 625 
Q 1425 1025 1425 1400 
Q 1425 1800 1400 2200 
L 5200 2200 
z
M 2625 4850 
Q 2425 4700 2050 4300 
Q 2050 2900 2075 2450 
L 1500 2450 
Q 1525 2900 1525 3825 
Q 1300 3625 1100 3425 
Q 900 3225 700 3050 
Q 475 3250 325 3400 
Q 850 3725 1325 4237 
Q 1800 4750 2050 5175 
Q 2325 4925 2625 4850 
z
M 3550 1325 
Q 3425 975 3312 687 
Q 3200 400 2925 137 
Q 2650 -125 2150 -325 
Q 1650 -525 800 -675 
Q 725 -400 475 -100 
Q 1200 -75 1675 25 
Q 2150 125 2412 325 
Q 2675 525 2787 775 
Q 2900 1025 2975 1400 
Q 3250 1350 3550 1325 
z
M 5575 -675 
Q 5125 -400 4650 -187 
Q 4175 25 3575 250 
Q 3725 500 3825 725 
Q 4350 500 4800 300 
Q 5250 100 5875 -175 
Q 5700 -400 5575 -675 
z
" transform="scale(0.015625)"/>
      </defs>
      <use xlink:href="#SimHei-8d27"/>
      <use xlink:href="#SimHei-91cf" x="100"/>
     </g>
    </g>
    <g id="line2d_22">
     <path d="M 190.8 871.06875 
L 202.8 871.06875 
L 214.8 871.06875 
" style="fill: none; stroke: #ff7f0e; stroke-width: 1.5; stroke-linecap: square"/>
    </g>
    <g id="text_20">
     <!-- 1-step-ahead Forecast (get_predictions, dynamic=False) -->
     <g transform="translate(224.4 875.26875) scale(0.12 -0.12)">
      <defs>
       <path id="SimHei-73" d="M 2750 900 
Q 2750 500 2437 287 
Q 2125 75 1650 75 
Q 1050 75 725 312 
Q 400 550 400 1000 
L 900 1000 
Q 900 700 1112 600 
Q 1325 500 1625 500 
Q 1925 500 2075 612 
Q 2225 725 2225 900 
Q 2225 1025 2100 1150 
Q 1975 1275 1475 1350 
Q 900 1425 687 1637 
Q 475 1850 475 2200 
Q 475 2500 762 2737 
Q 1050 2975 1600 2975 
Q 2100 2975 2387 2750 
Q 2675 2525 2675 2150 
L 2175 2150 
Q 2175 2375 2012 2462 
Q 1850 2550 1600 2550 
Q 1275 2550 1137 2437 
Q 1000 2325 1000 2175 
Q 1000 2000 1125 1900 
Q 1250 1800 1650 1750 
Q 2300 1650 2525 1437 
Q 2750 1225 2750 900 
z
" transform="scale(0.015625)"/>
       <path id="SimHei-70" d="M 2825 1525 
Q 2825 800 2475 425 
Q 2125 50 1625 50 
Q 1350 50 1150 162 
Q 950 275 800 500 
L 800 -800 
L 300 -800 
L 300 2925 
L 800 2925 
L 800 2550 
Q 950 2775 1150 2875 
Q 1350 2975 1625 2975 
Q 2125 2975 2475 2612 
Q 2825 2250 2825 1525 
z
M 2275 1525 
Q 2275 2000 2087 2262 
Q 1900 2525 1525 2525 
Q 1225 2525 1012 2262 
Q 800 2000 800 1525 
Q 800 1050 1012 775 
Q 1225 500 1525 500 
Q 1900 500 2087 775 
Q 2275 1050 2275 1525 
z
" transform="scale(0.015625)"/>
       <path id="SimHei-68" d="M 2800 125 
L 2300 125 
L 2300 1925 
Q 2300 2225 2150 2400 
Q 2000 2575 1750 2575 
Q 1425 2575 1137 2237 
Q 850 1900 850 1400 
L 850 125 
L 350 125 
L 350 4400 
L 850 4400 
L 850 2400 
Q 1050 2675 1287 2825 
Q 1525 2975 1900 2975 
Q 2350 2975 2575 2725 
Q 2800 2475 2800 2100 
L 2800 125 
z
" transform="scale(0.015625)"/>
       <path id="SimHei-64" d="M 2750 125 
L 2250 125 
L 2250 500 
Q 2100 275 1900 175 
Q 1700 75 1425 75 
Q 925 75 575 437 
Q 225 800 225 1525 
Q 225 2250 575 2625 
Q 925 3000 1425 3000 
Q 1700 3000 1900 2887 
Q 2100 2775 2250 2550 
L 2250 4400 
L 2750 4400 
L 2750 125 
z
M 2250 1525 
Q 2250 2000 2037 2275 
Q 1825 2550 1525 2550 
Q 1150 2550 962 2275 
Q 775 2000 775 1525 
Q 775 1050 962 787 
Q 1150 525 1525 525 
Q 1825 525 2037 787 
Q 2250 1050 2250 1525 
z
" transform="scale(0.015625)"/>
       <path id="SimHei-20" transform="scale(0.015625)"/>
       <path id="SimHei-46" d="M 2925 3925 
L 875 3925 
L 875 2525 
L 2425 2525 
L 2425 2050 
L 875 2050 
L 875 125 
L 300 125 
L 300 4400 
L 2925 4400 
L 2925 3925 
z
" transform="scale(0.015625)"/>
       <path id="SimHei-6f" d="M 2925 1525 
Q 2925 875 2525 475 
Q 2125 75 1575 75 
Q 1025 75 625 475 
Q 225 875 225 1525 
Q 225 2175 625 2575 
Q 1025 2975 1575 2975 
Q 2125 2975 2525 2575 
Q 2925 2175 2925 1525 
z
M 2375 1525 
Q 2375 2025 2125 2275 
Q 1875 2525 1575 2525 
Q 1275 2525 1025 2275 
Q 775 2025 775 1525 
Q 775 1025 1025 775 
Q 1275 525 1575 525 
Q 1875 525 2125 775 
Q 2375 1025 2375 1525 
z
" transform="scale(0.015625)"/>
       <path id="SimHei-72" d="M 2500 2425 
Q 2025 2500 1700 2287 
Q 1375 2075 1150 1550 
L 1150 125 
L 650 125 
L 650 2925 
L 1150 2925 
L 1150 2200 
Q 1375 2600 1712 2787 
Q 2050 2975 2500 2975 
L 2500 2425 
z
" transform="scale(0.015625)"/>
       <path id="SimHei-63" d="M 2850 1250 
Q 2850 725 2487 400 
Q 2125 75 1575 75 
Q 1025 75 625 462 
Q 225 850 225 1525 
Q 225 2200 625 2587 
Q 1025 2975 1575 2975 
Q 2125 2975 2450 2687 
Q 2775 2400 2775 2000 
L 2225 2000 
Q 2200 2300 2012 2412 
Q 1825 2525 1575 2525 
Q 1275 2525 1025 2287 
Q 775 2050 775 1525 
Q 775 1000 1025 762 
Q 1275 525 1575 525 
Q 1900 525 2100 700 
Q 2300 875 2300 1250 
L 2850 1250 
z
" transform="scale(0.015625)"/>
       <path id="SimHei-28" d="M 2975 -200 
L 2700 -475 
Q 2075 125 1762 775 
Q 1450 1425 1450 2250 
Q 1450 3075 1762 3725 
Q 2075 4375 2700 5000 
L 2975 4725 
Q 2400 4175 2112 3587 
Q 1825 3000 1825 2250 
Q 1825 1500 2112 912 
Q 2400 325 2975 -200 
z
" transform="scale(0.015625)"/>
       <path id="SimHei-67" d="M 2975 2500 
Q 2800 2550 2637 2562 
Q 2475 2575 2300 2525 
Q 2375 2450 2425 2337 
Q 2475 2225 2475 2000 
Q 2475 1575 2187 1300 
Q 1900 1025 1475 1025 
Q 1375 1025 1212 1062 
Q 1050 1100 950 1150 
Q 875 1100 850 1050 
Q 825 1000 825 925 
Q 825 800 1000 737 
Q 1175 675 1625 675 
Q 2350 675 2612 475 
Q 2875 275 2875 -25 
Q 2875 -425 2487 -612 
Q 2100 -800 1575 -800 
Q 900 -800 575 -625 
Q 250 -450 250 -150 
Q 250 0 375 150 
Q 500 300 700 400 
Q 550 475 462 587 
Q 375 700 375 875 
Q 375 1025 487 1137 
Q 600 1250 750 1325 
Q 625 1450 550 1625 
Q 475 1800 475 2000 
Q 475 2425 762 2700 
Q 1050 2975 1475 2975 
Q 1700 2975 1862 2912 
Q 2025 2850 2150 2725 
Q 2350 2875 2550 2937 
Q 2750 3000 2975 2975 
L 2975 2500 
z
M 1975 2000 
Q 1975 2250 1850 2400 
Q 1725 2550 1475 2550 
Q 1225 2550 1100 2400 
Q 975 2250 975 2000 
Q 975 1750 1100 1600 
Q 1225 1450 1475 1450 
Q 1725 1450 1850 1600 
Q 1975 1750 1975 2000 
z
M 2400 -75 
Q 2400 25 2287 125 
Q 2175 225 1725 225 
Q 1625 225 1450 237 
Q 1275 250 1050 275 
Q 850 200 775 100 
Q 700 0 700 -100 
Q 700 -250 900 -350 
Q 1100 -450 1600 -450 
Q 2025 -450 2212 -337 
Q 2400 -225 2400 -75 
z
" transform="scale(0.015625)"/>
       <path id="SimHei-5f" d="M 3150 -850 
L 0 -850 
L 0 -550 
L 3150 -550 
L 3150 -850 
z
" transform="scale(0.015625)"/>
       <path id="SimHei-69" d="M 1800 3725 
L 1300 3725 
L 1300 4375 
L 1800 4375 
L 1800 3725 
z
M 1800 125 
L 1300 125 
L 1300 2925 
L 1800 2925 
L 1800 125 
z
" transform="scale(0.015625)"/>
       <path id="SimHei-6e" d="M 2800 125 
L 2300 125 
L 2300 1925 
Q 2300 2225 2150 2400 
Q 2000 2575 1750 2575 
Q 1425 2575 1137 2237 
Q 850 1900 850 1400 
L 850 125 
L 350 125 
L 350 2925 
L 850 2925 
L 850 2400 
Q 1050 2675 1287 2825 
Q 1525 2975 1900 2975 
Q 2350 2975 2575 2725 
Q 2800 2475 2800 2100 
L 2800 125 
z
" transform="scale(0.015625)"/>
       <path id="SimHei-2c" d="M 1100 125 
L 775 -550 
L 525 -550 
L 775 125 
L 525 125 
L 525 675 
L 1100 675 
L 1100 125 
z
" transform="scale(0.015625)"/>
       <path id="SimHei-79" d="M 2900 2925 
L 1750 -100 
Q 1650 -450 1450 -625 
Q 1250 -800 950 -800 
Q 825 -800 712 -787 
Q 600 -775 500 -725 
L 500 -225 
Q 600 -275 700 -300 
Q 800 -325 875 -325 
Q 1075 -325 1150 -262 
Q 1225 -200 1300 25 
L 200 2925 
L 750 2925 
L 1550 725 
L 1575 725 
L 2350 2925 
L 2900 2925 
z
" transform="scale(0.015625)"/>
       <path id="SimHei-6d" d="M 3050 125 
L 2550 125 
L 2550 2150 
Q 2550 2300 2500 2400 
Q 2450 2500 2300 2500 
Q 2125 2500 1975 2312 
Q 1825 2125 1825 1825 
L 1825 125 
L 1325 125 
L 1325 2150 
Q 1325 2300 1275 2400 
Q 1225 2500 1075 2500 
Q 900 2500 750 2312 
Q 600 2125 600 1825 
L 600 125 
L 100 125 
L 100 2925 
L 600 2925 
L 600 2550 
Q 725 2750 900 2862 
Q 1075 2975 1275 2975 
Q 1475 2975 1612 2862 
Q 1750 2750 1800 2550 
Q 1925 2750 2087 2862 
Q 2250 2975 2450 2975 
Q 2750 2975 2900 2812 
Q 3050 2650 3050 2350 
L 3050 125 
z
" transform="scale(0.015625)"/>
       <path id="SimHei-3d" d="M 2975 2900 
L 125 2900 
L 125 3300 
L 2975 3300 
L 2975 2900 
z
M 2975 1375 
L 125 1375 
L 125 1775 
L 2975 1775 
L 2975 1375 
z
" transform="scale(0.015625)"/>
       <path id="SimHei-6c" d="M 1825 125 
L 1325 125 
L 1325 4400 
L 1825 4400 
L 1825 125 
z
" transform="scale(0.015625)"/>
       <path id="SimHei-29" d="M 1675 2250 
Q 1675 1425 1362 775 
Q 1050 125 425 -475 
L 150 -200 
Q 725 325 1012 912 
Q 1300 1500 1300 2250 
Q 1300 3000 1012 3587 
Q 725 4175 150 4725 
L 425 5000 
Q 1050 4375 1362 3725 
Q 1675 3075 1675 2250 
z
" transform="scale(0.015625)"/>
      </defs>
      <use xlink:href="#SimHei-31"/>
      <use xlink:href="#SimHei-2d" x="50"/>
      <use xlink:href="#SimHei-73" x="100"/>
      <use xlink:href="#SimHei-74" x="150"/>
      <use xlink:href="#SimHei-65" x="200"/>
      <use xlink:href="#SimHei-70" x="250"/>
      <use xlink:href="#SimHei-2d" x="300"/>
      <use xlink:href="#SimHei-61" x="350"/>
      <use xlink:href="#SimHei-68" x="400"/>
      <use xlink:href="#SimHei-65" x="450"/>
      <use xlink:href="#SimHei-61" x="500"/>
      <use xlink:href="#SimHei-64" x="550"/>
      <use xlink:href="#SimHei-20" x="600"/>
      <use xlink:href="#SimHei-46" x="650"/>
      <use xlink:href="#SimHei-6f" x="700"/>
      <use xlink:href="#SimHei-72" x="750"/>
      <use xlink:href="#SimHei-65" x="800"/>
      <use xlink:href="#SimHei-63" x="850"/>
      <use xlink:href="#SimHei-61" x="900"/>
      <use xlink:href="#SimHei-73" x="950"/>
      <use xlink:href="#SimHei-74" x="1000"/>
      <use xlink:href="#SimHei-20" x="1050"/>
      <use xlink:href="#SimHei-28" x="1100"/>
      <use xlink:href="#SimHei-67" x="1150"/>
      <use xlink:href="#SimHei-65" x="1200"/>
      <use xlink:href="#SimHei-74" x="1250"/>
      <use xlink:href="#SimHei-5f" x="1300"/>
      <use xlink:href="#SimHei-70" x="1350"/>
      <use xlink:href="#SimHei-72" x="1400"/>
      <use xlink:href="#SimHei-65" x="1450"/>
      <use xlink:href="#SimHei-64" x="1500"/>
      <use xlink:href="#SimHei-69" x="1550"/>
      <use xlink:href="#SimHei-63" x="1600"/>
      <use xlink:href="#SimHei-74" x="1650"/>
      <use xlink:href="#SimHei-69" x="1700"/>
      <use xlink:href="#SimHei-6f" x="1750"/>
      <use xlink:href="#SimHei-6e" x="1800"/>
      <use xlink:href="#SimHei-73" x="1850"/>
      <use xlink:href="#SimHei-2c" x="1900"/>
      <use xlink:href="#SimHei-20" x="1950"/>
      <use xlink:href="#SimHei-64" x="2000"/>
      <use xlink:href="#SimHei-79" x="2050"/>
      <use xlink:href="#SimHei-6e" x="2100"/>
      <use xlink:href="#SimHei-61" x="2150"/>
      <use xlink:href="#SimHei-6d" x="2200"/>
      <use xlink:href="#SimHei-69" x="2250"/>
      <use xlink:href="#SimHei-63" x="2300"/>
      <use xlink:href="#SimHei-3d" x="2350"/>
      <use xlink:href="#SimHei-46" x="2400"/>
      <use xlink:href="#SimHei-61" x="2450"/>
      <use xlink:href="#SimHei-6c" x="2500"/>
      <use xlink:href="#SimHei-73" x="2550"/>
      <use xlink:href="#SimHei-65" x="2600"/>
      <use xlink:href="#SimHei-29" x="2650"/>
     </g>
    </g>
    <g id="line2d_23">
     <path d="M 190.8 888.0375 
L 202.8 888.0375 
L 214.8 888.0375 
" style="fill: none; stroke: #2ca02c; stroke-width: 1.5; stroke-linecap: square"/>
    </g>
    <g id="text_21">
     <!-- Dynamic Forecast (get_predictions, dynamic=True) -->
     <g transform="translate(224.4 892.2375) scale(0.12 -0.12)">
      <defs>
       <path id="SimHei-54" d="M 2850 3925 
L 1850 3925 
L 1850 125 
L 1275 125 
L 1275 3925 
L 275 3925 
L 275 4400 
L 2850 4400 
L 2850 3925 
z
" transform="scale(0.015625)"/>
       <path id="SimHei-75" d="M 2800 125 
L 2300 125 
L 2300 650 
Q 2100 375 1862 225 
Q 1625 75 1250 75 
Q 800 75 575 325 
Q 350 575 350 950 
L 350 2925 
L 850 2925 
L 850 1125 
Q 850 825 1000 650 
Q 1150 475 1400 475 
Q 1725 475 2012 812 
Q 2300 1150 2300 1650 
L 2300 2925 
L 2800 2925 
L 2800 125 
z
" transform="scale(0.015625)"/>
      </defs>
      <use xlink:href="#SimHei-44"/>
      <use xlink:href="#SimHei-79" x="50"/>
      <use xlink:href="#SimHei-6e" x="100"/>
      <use xlink:href="#SimHei-61" x="150"/>
      <use xlink:href="#SimHei-6d" x="200"/>
      <use xlink:href="#SimHei-69" x="250"/>
      <use xlink:href="#SimHei-63" x="300"/>
      <use xlink:href="#SimHei-20" x="350"/>
      <use xlink:href="#SimHei-46" x="400"/>
      <use xlink:href="#SimHei-6f" x="450"/>
      <use xlink:href="#SimHei-72" x="500"/>
      <use xlink:href="#SimHei-65" x="550"/>
      <use xlink:href="#SimHei-63" x="600"/>
      <use xlink:href="#SimHei-61" x="650"/>
      <use xlink:href="#SimHei-73" x="700"/>
      <use xlink:href="#SimHei-74" x="750"/>
      <use xlink:href="#SimHei-20" x="800"/>
      <use xlink:href="#SimHei-28" x="850"/>
      <use xlink:href="#SimHei-67" x="900"/>
      <use xlink:href="#SimHei-65" x="950"/>
      <use xlink:href="#SimHei-74" x="1000"/>
      <use xlink:href="#SimHei-5f" x="1050"/>
      <use xlink:href="#SimHei-70" x="1100"/>
      <use xlink:href="#SimHei-72" x="1150"/>
      <use xlink:href="#SimHei-65" x="1200"/>
      <use xlink:href="#SimHei-64" x="1250"/>
      <use xlink:href="#SimHei-69" x="1300"/>
      <use xlink:href="#SimHei-63" x="1350"/>
      <use xlink:href="#SimHei-74" x="1400"/>
      <use xlink:href="#SimHei-69" x="1450"/>
      <use xlink:href="#SimHei-6f" x="1500"/>
      <use xlink:href="#SimHei-6e" x="1550"/>
      <use xlink:href="#SimHei-73" x="1600"/>
      <use xlink:href="#SimHei-2c" x="1650"/>
      <use xlink:href="#SimHei-20" x="1700"/>
      <use xlink:href="#SimHei-64" x="1750"/>
      <use xlink:href="#SimHei-79" x="1800"/>
      <use xlink:href="#SimHei-6e" x="1850"/>
      <use xlink:href="#SimHei-61" x="1900"/>
      <use xlink:href="#SimHei-6d" x="1950"/>
      <use xlink:href="#SimHei-69" x="2000"/>
      <use xlink:href="#SimHei-63" x="2050"/>
      <use xlink:href="#SimHei-3d" x="2100"/>
      <use xlink:href="#SimHei-54" x="2150"/>
      <use xlink:href="#SimHei-72" x="2200"/>
      <use xlink:href="#SimHei-75" x="2250"/>
      <use xlink:href="#SimHei-65" x="2300"/>
      <use xlink:href="#SimHei-29" x="2350"/>
     </g>
    </g>
    <g id="line2d_24">
     <path d="M 190.8 905.00625 
L 202.8 905.00625 
L 214.8 905.00625 
" style="fill: none; stroke: #d62728; stroke-width: 1.5; stroke-linecap: square"/>
    </g>
    <g id="text_22">
     <!-- Dynamic Forecast (get_forecast) -->
     <g transform="translate(224.4 909.20625) scale(0.12 -0.12)">
      <defs>
       <path id="SimHei-66" d="M 2850 3825 
Q 2725 3900 2550 3950 
Q 2375 4000 2100 4000 
Q 1825 4000 1725 3862 
Q 1625 3725 1625 3525 
L 1625 2925 
L 2650 2925 
L 2650 2525 
L 1625 2525 
L 1625 125 
L 1125 125 
L 1125 2525 
L 275 2525 
L 275 2925 
L 1125 2925 
L 1125 3500 
Q 1125 3950 1400 4200 
Q 1675 4450 2125 4450 
Q 2400 4450 2562 4412 
Q 2725 4375 2850 4325 
L 2850 3825 
z
" transform="scale(0.015625)"/>
      </defs>
      <use xlink:href="#SimHei-44"/>
      <use xlink:href="#SimHei-79" x="50"/>
      <use xlink:href="#SimHei-6e" x="100"/>
      <use xlink:href="#SimHei-61" x="150"/>
      <use xlink:href="#SimHei-6d" x="200"/>
      <use xlink:href="#SimHei-69" x="250"/>
      <use xlink:href="#SimHei-63" x="300"/>
      <use xlink:href="#SimHei-20" x="350"/>
      <use xlink:href="#SimHei-46" x="400"/>
      <use xlink:href="#SimHei-6f" x="450"/>
      <use xlink:href="#SimHei-72" x="500"/>
      <use xlink:href="#SimHei-65" x="550"/>
      <use xlink:href="#SimHei-63" x="600"/>
      <use xlink:href="#SimHei-61" x="650"/>
      <use xlink:href="#SimHei-73" x="700"/>
      <use xlink:href="#SimHei-74" x="750"/>
      <use xlink:href="#SimHei-20" x="800"/>
      <use xlink:href="#SimHei-28" x="850"/>
      <use xlink:href="#SimHei-67" x="900"/>
      <use xlink:href="#SimHei-65" x="950"/>
      <use xlink:href="#SimHei-74" x="1000"/>
      <use xlink:href="#SimHei-5f" x="1050"/>
      <use xlink:href="#SimHei-66" x="1100"/>
      <use xlink:href="#SimHei-6f" x="1150"/>
      <use xlink:href="#SimHei-72" x="1200"/>
      <use xlink:href="#SimHei-65" x="1250"/>
      <use xlink:href="#SimHei-63" x="1300"/>
      <use xlink:href="#SimHei-61" x="1350"/>
      <use xlink:href="#SimHei-73" x="1400"/>
      <use xlink:href="#SimHei-74" x="1450"/>
      <use xlink:href="#SimHei-29" x="1500"/>
     </g>
    </g>
   </g>
  </g>
 </g>
 <defs>
  <clipPath id="p689274e9f3">
   <rect x="180" y="138.24" width="1116" height="783.36"/>
  </clipPath>
 </defs>
</svg>
